<?xml version="1.0" standalone="no"?>
<!DOCTYPE svg PUBLIC "-//W3C//DTD SVG 20010904//EN"
 "http://www.w3.org/TR/2001/REC-SVG-20010904/DTD/svg10.dtd">
<svg version="1.0" xmlns="http://www.w3.org/2000/svg"
 width="1026.000000pt" height="498.000000pt" viewBox="0 0 1026.000000 498.000000"
 preserveAspectRatio="xMidYMid meet">
<metadata>
Created by potrace 1.16, written by Peter Selinger 2001-2019
</metadata>
<g transform="translate(0.000000,498.000000) scale(0.100000,-0.100000)"
fill="#000000" stroke="none">
<path d="M0 4455 c0 -510 1 -525 19 -516 10 6 21 8 24 5 3 -3 19 2 36 10 39
21 117 21 125 1 8 -21 -3 -45 -20 -45 -8 0 -14 -10 -14 -24 0 -13 -9 -34 -19
-47 l-20 -24 -48 25 c-26 14 -54 31 -63 39 -13 13 -15 -8 -18 -194 -1 -115 1
-212 5 -216 5 -4 30 -4 58 1 27 4 95 4 150 -1 55 -4 139 -8 187 -9 48 0 89 -4
92 -8 2 -4 -15 -14 -39 -21 -25 -7 -45 -20 -48 -30 -2 -11 -18 -21 -37 -25
-18 -3 -30 -9 -27 -13 4 -3 1 -13 -7 -22 -8 -9 -16 -25 -18 -36 -2 -11 -21
-29 -43 -41 -36 -19 -45 -19 -85 -8 -25 7 -76 28 -114 48 -38 20 -70 36 -72
36 -2 0 -4 -36 -4 -79 0 -72 2 -80 21 -86 12 -4 24 -3 28 2 3 5 28 5 58 0 44
-7 53 -12 64 -39 10 -25 10 -31 -2 -39 -10 -6 -21 -1 -36 17 -13 14 -37 30
-53 36 -27 9 -33 7 -55 -16 -23 -25 -36 -84 -16 -72 14 9 41 -18 47 -49 4 -22
0 -36 -16 -53 -12 -12 -25 -20 -31 -17 -5 4 -9 -51 -9 -140 l0 -146 79 6 c107
10 112 -2 32 -77 -41 -38 -70 -58 -86 -58 l-25 0 0 -209 0 -209 32 -5 c105
-17 194 -27 280 -33 55 -3 104 -11 115 -19 16 -12 13 -14 -27 -27 -79 -23
-289 -9 -383 27 -16 7 -17 -24 -17 -563 l0 -569 72 -1 c47 0 76 4 85 13 11 12
10 15 -4 24 -26 14 -12 21 53 28 55 6 58 5 42 -10 -9 -10 -26 -17 -37 -17 -24
0 -33 -11 -21 -30 7 -12 13 -12 37 -1 17 8 63 13 123 12 52 -1 102 2 113 5 29
9 1 34 -39 34 -18 0 -35 4 -38 8 -13 21 83 43 187 43 33 0 47 4 44 12 -6 18
-54 24 -144 19 -59 -4 -83 -2 -83 7 0 6 16 11 39 11 22 0 42 4 45 9 8 12 -43
33 -65 26 -26 -9 -101 14 -96 28 2 8 28 12 73 12 58 0 69 -3 66 -16 -2 -14 12
-16 112 -14 84 1 116 -2 120 -11 3 -7 19 -15 36 -19 28 -6 31 -10 28 -38 -2
-26 1 -32 17 -32 11 0 19 6 17 13 -4 20 29 27 43 9 11 -15 14 -14 35 8 13 14
18 25 12 25 -7 0 -12 4 -12 10 0 6 40 9 101 9 57 -1 105 3 111 9 15 15 -34 44
-91 53 -73 11 -176 -3 -133 -18 30 -11 7 -23 -43 -23 -30 0 -55 5 -55 10 0 6
4 10 10 10 5 0 19 11 32 24 16 18 42 28 88 36 36 6 72 11 80 10 45 -6 375 3
430 11 36 5 129 16 207 24 78 8 152 19 163 25 11 6 48 13 83 15 35 2 83 9 107
16 51 13 137 1 133 -19 -2 -7 9 -12 27 -12 23 0 30 5 30 19 0 10 7 24 15 31
21 18 2 30 -48 30 -36 0 -37 1 -35 32 3 29 0 33 -32 41 -19 5 -48 8 -65 8 -41
-1 -133 18 -140 29 -3 5 9 23 27 40 l33 30 -22 19 c-29 24 -31 61 -3 61 11 0
20 -4 20 -10 0 -17 57 -11 81 9 l24 20 -35 14 c-19 8 -43 17 -52 20 -10 4 -18
11 -18 16 0 14 -76 50 -97 45 -12 -3 -33 9 -60 35 -43 40 -55 71 -28 71 18 0
20 26 3 36 -6 4 -16 0 -23 -9 -9 -13 -15 -14 -35 -4 -12 7 -29 22 -37 34 -13
20 -12 22 14 35 15 7 28 20 28 28 0 20 -42 25 -73 8 -21 -11 -26 -11 -30 0 -2
7 -16 18 -30 23 -22 8 -23 12 -11 24 8 7 61 30 119 50 l105 37 138 -5 c158 -7
193 1 202 43 9 40 38 64 67 54 42 -13 68 -36 68 -59 0 -13 7 -25 15 -29 9 -3
15 -18 15 -36 0 -24 -7 -35 -30 -48 -21 -11 -30 -24 -28 -37 2 -16 13 -21 53
-25 58 -6 87 -24 121 -74 24 -35 26 -36 92 -36 51 0 80 -6 122 -26 l55 -26
-24 -19 c-15 -12 -40 -19 -70 -20 -96 -2 -115 -8 -142 -39 -26 -30 -53 -39
-64 -20 -10 16 -52 11 -100 -12 -25 -12 -45 -25 -45 -28 0 -18 125 -32 269
-30 196 4 191 4 191 -20 0 -25 -7 -28 -97 -34 -40 -3 -81 -10 -92 -15 -25 -14
-67 -14 -91 -1 -20 11 -70 4 -70 -10 0 -18 132 -31 199 -21 199 32 192 31 228
15 27 -14 38 -14 62 -4 16 6 38 9 49 6 39 -13 138 -28 206 -31 38 -3 71 -7 74
-10 3 -3 -2 -13 -12 -24 -16 -18 -15 -20 18 -41 22 -13 36 -30 36 -42 0 -17 2
-18 15 -4 8 8 15 19 15 25 0 11 34 32 47 30 4 -1 19 -1 33 0 20 1 22 3 10 11
-8 5 -24 10 -34 10 -23 0 -116 41 -116 51 0 36 103 42 149 9 22 -17 36 -21 58
-15 15 3 41 6 56 6 15 0 46 9 69 21 l42 22 -30 12 c-17 7 -36 19 -43 28 -11
13 -7 16 21 21 19 4 50 5 69 3 30 -3 34 -6 32 -30 -1 -24 3 -28 45 -37 80 -17
95 -26 137 -87 29 -42 55 -66 91 -84 27 -14 50 -33 52 -42 3 -15 -4 -18 -47
-18 -52 0 -65 -11 -33 -29 12 -8 -7 -10 -74 -11 -78 0 -93 -3 -109 -20 -10
-11 -24 -20 -32 -20 -7 0 -13 -4 -13 -10 0 -5 11 -10 25 -10 14 0 37 -7 51
-16 19 -13 38 -15 83 -11 45 5 60 3 64 -7 8 -19 -2 -26 -35 -26 -15 0 -28 -4
-28 -10 0 -5 7 -10 17 -10 15 0 15 -2 -1 -19 -16 -18 -33 -20 -204 -20 -184
-1 -236 7 -202 29 8 5 24 10 35 10 22 0 59 20 38 20 -7 0 -13 9 -13 20 0 11
-4 20 -10 20 -12 0 -13 27 -1 32 4 2 12 13 15 26 6 17 3 22 -12 22 -10 0 -33
7 -50 16 -37 18 -65 9 -37 -12 26 -19 13 -27 -45 -28 -36 -1 -53 -6 -63 -20
-12 -17 -27 -19 -111 -18 -100 1 -140 7 -131 22 10 17 -14 20 -30 4 -21 -21
-38 -7 -39 33 -1 30 -21 40 -46 23 -13 -8 -13 -11 3 -22 26 -19 12 -45 -31
-60 -28 -9 -32 -13 -18 -16 18 -4 18 -5 -5 -22 l-24 -19 28 -10 c16 -6 49 -11
75 -11 26 0 61 -7 77 -16 33 -17 67 -20 138 -9 32 5 47 4 47 -4 0 -6 11 -11
25 -11 16 0 25 6 25 15 0 10 10 15 30 15 32 0 90 -25 90 -38 0 -15 106 -28
195 -26 214 8 295 6 379 -5 103 -14 109 -16 101 -42 -6 -17 -1 -19 35 -19 25
0 39 -4 35 -10 -3 -5 -31 -10 -62 -10 -44 0 -54 3 -50 15 4 8 2 17 -3 20 -13
8 -117 13 -285 15 -231 3 -255 2 -255 -14 0 -9 13 -16 33 -19 20 -2 11 -4 -24
-5 -42 -2 -58 2 -63 13 -3 8 0 16 7 16 7 1 -6 5 -28 10 -81 16 -222 7 -193
-13 8 -6 0 -7 -23 -4 -27 5 -38 3 -42 -9 -5 -11 -20 -14 -59 -13 -29 0 -47 3
-40 5 6 3 12 10 12 17 0 10 -37 13 -157 13 -87 -1 -171 1 -188 3 -53 5 -400
-11 -408 -19 -5 -5 -26 -2 -46 6 -28 11 -37 20 -36 36 1 12 9 23 18 25 9 2 17
8 17 13 0 12 -57 12 -65 -1 -3 -5 -14 -10 -24 -10 -20 0 -55 -33 -45 -43 3 -3
-21 -9 -54 -13 -40 -4 -63 -12 -67 -22 -8 -20 -5 -21 49 -23 51 -2 76 -19 27
-19 -34 0 -44 -10 -35 -35 5 -12 14 -15 30 -11 41 11 695 16 689 7 -3 -5 -46
-13 -96 -17 -50 -3 -87 -10 -82 -15 13 -13 281 -15 294 -2 15 15 3 33 -22 33
-10 0 -19 5 -19 10 0 12 57 12 85 0 16 -7 17 -9 3 -9 -21 -1 -30 -15 -22 -35
9 -22 37 -20 60 5 15 16 16 22 5 29 -18 10 24 19 98 19 30 1 56 3 59 6 11 10
41 -16 35 -31 -4 -12 -1 -15 13 -12 12 2 18 11 16 22 -3 14 3 17 25 14 20 -2
27 -8 25 -20 -2 -13 4 -18 25 -19 15 -1 55 -3 88 -4 33 -2 68 -4 78 -5 9 0 28
0 41 1 13 1 37 -9 54 -21 18 -14 44 -23 64 -22 18 0 52 1 75 1 33 0 41 3 37
15 -8 20 5 25 75 30 54 3 62 2 59 -12 -4 -17 -9 -17 -72 -5 -18 4 -31 1 -36
-8 -14 -22 -1 -29 50 -29 36 0 52 5 59 17 7 13 13 14 23 7 19 -15 63 -1 62 19
-2 23 13 21 19 -2 3 -13 19 -24 46 -31 46 -12 55 -36 17 -46 -25 -6 -106 0
-141 10 -20 6 -54 -8 -44 -18 9 -9 101 -27 132 -26 40 1 33 -18 -10 -26 l-37
-7 23 -18 c25 -21 102 -24 214 -10 33 4 80 3 108 -3 41 -8 52 -8 59 4 14 22
12 30 -9 30 -39 0 -51 10 -40 32 6 11 9 21 7 23 -2 2 -25 5 -52 6 -34 3 -51 0
-54 -9 -2 -7 5 -16 17 -19 12 -3 21 -12 21 -19 0 -12 -18 -14 -90 -12 -50 2
-90 6 -90 9 0 12 30 19 59 13 21 -5 35 -1 51 14 l21 19 -22 6 c-20 5 -21 8 -8
23 11 13 25 15 70 11 30 -3 65 -11 77 -18 19 -12 23 -11 36 6 20 27 20 32 -4
40 -11 4 -20 15 -20 27 0 18 -4 20 -35 15 -19 -3 -37 -1 -40 4 -4 5 -36 10
-73 10 -57 2 -49 3 48 11 82 7 124 7 146 -1 26 -9 105 -9 141 1 14 4 53 -13
53 -23 0 -5 -13 -12 -30 -15 -16 -4 -27 -10 -25 -15 8 -12 -29 -29 -52 -23
-12 4 -22 0 -26 -9 -4 -11 5 -17 39 -22 24 -3 48 -4 54 0 5 3 18 0 29 -7 15
-9 23 -9 35 1 13 11 16 11 16 -2 0 -19 -24 -39 -36 -28 -11 10 -94 -7 -94 -20
0 -12 47 -12 55 1 5 8 11 7 20 0 10 -8 19 -8 34 -1 25 14 68 14 76 1 3 -6 14
-10 23 -10 13 0 9 6 -12 23 -25 20 -28 27 -21 53 8 26 9 27 12 7 5 -24 36 -32
48 -13 3 6 -1 10 -9 10 -15 0 -18 5 -20 40 -1 8 -11 16 -23 18 -39 6 -25 22
18 22 28 0 39 4 36 13 -2 6 -19 12 -38 12 -19 0 -63 4 -99 9 -71 10 -61 24 17
25 50 1 62 14 32 35 -16 11 -28 12 -47 5 -27 -11 -82 -3 -82 11 0 17 106 35
115 20 3 -5 26 -10 49 -10 48 0 74 -18 54 -38 -6 -6 -8 -15 -4 -19 14 -14 169
-8 222 9 66 20 79 12 70 -40 -7 -45 -4 -48 39 -53 26 -4 30 -1 30 21 0 19 5
24 19 22 10 -2 29 -1 42 2 27 7 23 31 -7 39 -11 3 -19 14 -19 25 0 12 -4 24
-10 27 -17 10 -11 35 8 35 9 0 24 -15 32 -33 11 -23 25 -35 52 -42 20 -6 43
-16 50 -23 6 -6 22 -12 35 -12 13 0 40 -7 60 -15 19 -8 48 -15 64 -15 15 0 31
-5 34 -10 11 -18 -25 -23 -82 -11 -38 7 -60 8 -67 1 -15 -15 -43 -12 -50 6 -5
13 -13 15 -39 9 -17 -4 -46 -7 -64 -6 -34 1 -51 -13 -32 -25 7 -4 24 -7 38 -8
21 -1 26 -6 24 -23 -2 -18 3 -22 35 -25 29 -2 40 -9 50 -30 11 -23 20 -28 48
-28 40 0 45 16 9 30 -14 5 -25 14 -25 20 0 13 27 13 35 0 7 -12 75 -14 75 -2
0 15 -49 32 -90 32 -22 0 -40 4 -40 9 0 4 97 9 216 10 119 1 237 6 261 11 30
7 64 7 101 0 96 -17 287 -16 298 1 3 5 15 9 28 9 13 0 31 9 41 20 23 25 47 26
62 1 19 -31 70 -37 97 -12 26 24 56 19 56 -9 0 -10 9 -21 20 -25 25 -8 60 11
60 32 0 14 4 13 23 -5 12 -12 40 -23 61 -26 71 -9 50 -16 -46 -16 -75 0 -98
-3 -109 -16 -17 -21 5 -35 46 -29 17 3 108 7 204 9 110 3 178 9 185 16 8 8 -2
9 -40 4 -51 -6 -117 7 -129 26 -6 10 70 50 95 50 8 0 26 -7 38 -16 13 -9 34
-19 47 -23 14 -3 25 -10 26 -16 3 -25 21 -43 49 -49 17 -3 29 -10 26 -15 -9
-14 -99 -21 -314 -23 -188 -2 -242 -8 -192 -21 11 -3 88 -2 172 1 84 3 171 6
193 5 60 0 145 -15 140 -23 -9 -15 -111 -23 -294 -22 -157 0 -189 3 -222 19
-21 10 -39 21 -39 26 0 4 -11 7 -25 7 -23 0 -24 -2 -15 -20 16 -30 -13 -37
-58 -15 -21 10 -41 17 -47 16 -5 -2 -21 -4 -35 -5 -14 -1 -42 -8 -63 -16 -35
-13 -38 -17 -35 -50 3 -36 22 -48 56 -35 16 6 16 7 0 16 -10 6 -18 19 -18 31
0 18 4 19 38 13 20 -4 103 -7 184 -6 137 1 198 -8 198 -29 0 -15 -42 -18 -150
-13 -61 3 -110 1 -110 -4 0 -14 66 -30 90 -21 13 5 32 6 42 2 11 -3 70 -8 131
-10 62 -2 141 -6 177 -10 68 -7 96 -8 145 -5 58 4 157 -8 172 -21 8 -7 24 -17
35 -23 36 -18 20 -30 -35 -27 -28 1 -86 2 -128 2 -65 -1 -79 2 -100 22 -23 21
-33 23 -134 22 -121 -2 -195 -11 -195 -25 0 -15 -40 -10 -57 6 -8 9 -18 13
-22 9 -3 -4 0 -9 7 -11 6 -3 10 -9 6 -14 -8 -14 -68 -11 -90 6 -23 18 -50 19
-60 3 -5 -8 -2 -9 9 -5 11 4 17 1 17 -8 0 -20 -19 -29 -34 -16 -7 6 -16 8 -19
4 -21 -20 -122 5 -126 32 0 6 -11 13 -23 16 -98 27 -138 41 -138 50 0 8 15 11
79 14 31 1 35 14 13 43 -16 21 -29 24 -115 29 -70 4 -97 3 -97 -6 0 -7 22 -11
60 -11 47 0 62 -4 67 -16 4 -10 0 -22 -9 -28 -8 -6 -16 -15 -17 -21 -4 -18
-11 -19 -11 -2 0 9 -3 18 -7 18 -30 5 -78 8 -218 12 -88 3 -172 8 -187 12 -31
8 -78 -1 -78 -14 0 -17 64 -35 134 -37 39 -1 79 -2 89 -3 26 -2 20 -21 -7 -21
-13 0 -36 -6 -51 -14 l-28 -15 27 -7 c37 -9 27 -28 -17 -32 -35 -3 -49 9 -27
23 29 18 -9 37 -47 24 -14 -5 -23 -4 -26 4 -7 18 -80 43 -85 28 -5 -16 -57
-14 -71 3 -8 9 -8 16 -2 20 5 4 12 2 16 -4 10 -16 44 -11 65 10 11 11 20 22
20 24 0 11 -34 15 -51 6 -13 -8 -32 -7 -60 0 -30 8 -44 8 -55 -1 -20 -16 -95
-5 -111 18 -12 15 -11 20 2 29 25 18 18 24 -30 24 -35 0 -45 -4 -45 -16 0 -9
9 -18 20 -21 30 -8 24 -20 -15 -34 -41 -15 -42 -20 -14 -37 18 -12 24 -11 45
9 13 12 24 18 24 12 0 -6 10 -13 22 -16 21 -6 21 -7 3 -27 -18 -20 -18 -20 18
-20 38 0 45 8 25 28 -18 18 -1 27 26 14 17 -8 27 -7 36 1 10 9 11 7 6 -10 -4
-12 -2 -24 3 -27 19 -12 -1 -36 -30 -36 -16 0 -29 -4 -29 -10 0 -5 9 -10 20
-10 21 0 28 -19 8 -21 -62 -6 -81 -3 -86 14 -2 9 -13 17 -23 17 -12 0 -24 11
-29 26 -8 19 -15 24 -28 19 -9 -3 -29 -9 -44 -12 -23 -5 -28 -2 -28 15 0 11
-7 23 -16 26 -10 4 -13 13 -9 27 5 14 1 25 -11 33 -27 20 -12 48 20 37 23 -9
36 -6 36 9 0 4 -18 13 -40 20 -30 10 -43 11 -52 2 -13 -13 -38 -80 -38 -103 0
-15 -6 -16 -42 -7 -24 6 -50 17 -59 24 -18 16 -65 19 -74 5 -3 -5 2 -16 10
-24 22 -22 19 -27 -14 -27 -19 0 -35 8 -45 21 -9 13 -21 19 -30 16 -8 -3 -18
-2 -21 4 -4 5 -11 7 -17 3 -5 -3 -40 -6 -76 -6 -37 0 -72 -4 -79 -10 -7 -6
-41 -7 -80 -4 -119 10 -217 14 -237 9 -19 -5 -19 -6 0 -16 10 -6 33 -12 49
-14 17 -1 44 -5 62 -8 17 -3 34 -1 37 4 3 5 15 7 26 4 26 -7 15 -23 -16 -23
-30 0 -32 -18 -1 -24 72 -15 87 -13 87 11 0 28 18 33 120 36 72 2 76 1 92 -25
20 -31 49 -36 72 -13 9 10 17 11 21 5 3 -6 18 -10 33 -10 15 0 42 -2 60 -6 25
-5 32 -3 32 9 0 13 4 13 35 -1 36 -17 52 -58 18 -45 -15 6 -16 4 -6 -9 7 -8
10 -18 6 -21 -13 -14 -61 -6 -82 12 -21 18 -41 19 -66 1 -17 -12 -65 -18 -71
-9 -3 5 0 9 5 9 6 0 11 4 11 9 0 6 -12 6 -31 1 -23 -7 -39 -5 -61 6 -36 19
-93 11 -107 -13 -8 -15 -35 -17 -207 -20 -110 -1 -233 -3 -274 -4 -105 -2
-360 -3 -520 -1 -141 2 -180 -2 -180 -18 0 -20 55 -24 290 -21 209 2 268 -1
400 -19 115 -17 212 -23 375 -24 121 -2 292 -6 380 -10 130 -5 383 -7 750 -4
66 1 220 0 385 -2 85 0 162 -1 170 0 8 0 80 2 160 4 124 2 151 0 184 -16 22
-10 42 -14 45 -10 3 5 22 9 41 9 353 5 620 12 629 18 7 4 27 0 46 -9 26 -13
40 -14 61 -6 16 6 58 9 98 5 116 -9 135 -15 138 -39 3 -18 9 -21 46 -19 36 1
42 -1 42 -18 0 -18 8 -19 130 -19 80 0 130 4 130 10 0 10 -69 15 -143 10 -21
-1 -43 2 -50 8 -7 5 -24 12 -39 16 -16 3 -28 12 -28 20 0 23 54 39 140 40 49
1 95 7 109 15 14 8 36 10 55 7 17 -4 47 -9 66 -12 52 -8 248 -7 297 1 26 5 48
3 55 -3 7 -6 37 -8 68 -6 30 3 66 5 80 4 14 0 45 0 70 1 47 1 56 1 147 -3 62
-3 81 -22 39 -38 -14 -5 -26 -14 -26 -19 0 -6 -16 -13 -35 -17 -47 -8 -47 -34
-1 -34 26 0 36 5 41 20 4 12 15 20 28 20 16 0 18 -3 9 -12 -7 -7 -12 -16 -12
-20 0 -4 154 -8 343 -8 251 1 337 4 323 11 -10 6 -37 9 -59 6 -23 -3 -77 -2
-122 3 -145 16 -353 22 -374 11 -11 -6 -33 -8 -49 -5 -26 5 -30 10 -29 40 1
22 7 35 16 38 39 11 229 17 481 15 151 -1 318 -2 370 -2 107 0 450 10 465 14
6 1 47 -1 93 -5 l82 -7 0 65 c0 58 -2 66 -19 66 -10 0 -22 8 -25 17 -6 15 -10
14 -29 -9 -18 -21 -26 -25 -44 -18 -19 8 -21 13 -14 32 4 13 12 21 17 19 30
-12 37 -13 45 0 6 10 1 16 -19 20 -36 9 -286 11 -306 3 -10 -4 -16 -18 -16
-35 0 -28 -2 -30 -37 -28 -21 1 -79 -2 -129 -6 -58 -5 -97 -4 -110 3 -13 7
-33 7 -64 0 -32 -7 -57 -7 -88 1 -41 11 -58 31 -27 31 9 0 24 13 33 30 13 24
24 30 50 30 18 0 42 -5 53 -10 13 -7 19 -7 19 0 0 5 21 9 48 8 47 -1 122 20
122 35 0 4 -11 12 -25 17 -29 11 -33 27 -8 32 13 2 118 -5 178 -13 36 -4 306
22 330 32 l30 13 -40 6 c-29 5 -35 8 -24 14 10 4 23 7 30 5 8 -1 26 -1 42 0
38 1 37 31 -2 31 -48 0 -121 12 -121 21 0 4 34 10 75 14 41 4 75 10 75 14 0 6
-179 8 -217 3 -21 -3 -15 -19 10 -27 22 -8 22 -8 -3 -12 -66 -10 -72 -13 -60
-28 8 -10 32 -15 69 -15 68 0 98 -14 51 -24 -18 -3 -43 -3 -56 0 -14 4 -31 1
-39 -6 -11 -9 -31 -10 -73 -4 -59 8 -188 7 -281 -2 -29 -4 -63 -1 -75 4 -11 6
-28 12 -36 15 -8 2 13 7 48 11 34 4 67 4 72 1 21 -13 70 6 70 26 0 10 5 19 10
19 6 0 10 4 10 8 0 11 -225 36 -240 27 -8 -5 -8 -11 1 -21 6 -8 9 -17 6 -20
-10 -10 -70 -13 -86 -5 -27 15 -84 17 -88 4 -3 -9 6 -13 25 -13 17 0 32 -6 36
-15 4 -11 20 -15 56 -15 33 0 49 -4 45 -11 -4 -5 -12 -8 -18 -6 -7 2 -26 0
-43 -5 -20 -5 -42 -4 -59 2 -29 11 -50 3 -50 -20 0 -20 -115 -23 -165 -4 -19
7 -70 18 -112 25 -43 6 -78 16 -78 20 0 5 5 9 12 9 9 0 9 3 0 12 -16 16 -565
17 -584 0 -9 -7 -25 -9 -44 -4 -16 4 -105 9 -199 11 -190 3 -265 20 -93 21 66
0 109 4 114 11 4 6 20 8 40 4 26 -4 34 -3 34 9 0 15 -11 15 -170 0 -30 -3 -93
-7 -140 -9 -124 -5 -118 -3 -91 -25 28 -24 51 -26 51 -5 0 20 17 19 28 -2 6
-10 31 -20 63 -25 107 -18 119 -20 125 -29 6 -10 0 -11 -171 -13 -154 -2 -191
3 -187 27 2 11 -4 17 -15 17 -58 2 -225 19 -230 24 -15 14 15 19 154 21 172 3
160 2 146 16 -7 7 -57 13 -125 14 -62 2 -132 3 -155 4 -51 1 -58 21 -8 21 19
0 35 5 35 10 0 6 -9 10 -19 10 -11 0 -23 4 -26 10 -3 5 -20 10 -38 10 -19 0
-27 4 -21 9 16 15 212 23 592 25 352 1 438 -3 361 -18 -20 -3 -44 -4 -53 0 -9
3 -23 1 -31 -6 -8 -7 -45 -11 -92 -11 -98 2 -275 -10 -268 -17 2 -3 132 -7
288 -9 199 -3 291 -1 312 7 l30 12 -45 18 c-42 16 -43 18 -20 25 23 7 53 10
160 14 40 1 73 19 53 28 -20 7 -15 20 10 28 20 7 18 8 -13 14 -45 8 -49 37 -5
34 17 -1 65 1 108 4 61 4 75 8 67 18 -8 10 -1 14 33 19 46 7 81 0 72 -15 -8
-12 25 -59 41 -59 8 0 14 9 14 20 0 16 7 20 34 20 45 0 54 -15 19 -34 -27 -15
-24 -15 62 -15 115 -1 135 5 135 35 0 15 6 24 15 24 9 0 26 6 38 14 25 16 130
17 136 1 2 -5 -9 -17 -25 -25 -45 -26 -38 -35 37 -48 73 -13 89 -10 89 13 0 7
12 16 28 18 26 4 26 4 5 12 -13 4 -20 11 -17 17 5 7 54 9 259 9 11 0 66 0 122
0 59 0 104 -5 108 -11 3 -5 1 -10 -6 -10 -10 0 -10 -3 -2 -11 8 -8 17 -8 33 1
18 10 26 8 43 -8 12 -10 30 -22 40 -25 17 -6 17 14 15 400 l-3 407 -32 9 c-29
9 -31 12 -26 41 8 41 9 41 38 28 l26 -12 -4 193 c-3 105 -8 208 -12 228 -4 23
-3 39 4 43 16 10 16 1247 0 1263 -8 8 -8 17 1 32 7 14 10 67 9 142 -2 115 -3
121 -27 139 -14 11 -31 20 -38 20 -8 0 -14 5 -14 10 0 6 4 10 9 10 13 0 34 68
27 86 -3 9 -14 14 -23 12 -13 -2 -18 -13 -18 -38 0 -26 -4 -34 -15 -31 -8 2
-42 4 -74 4 -44 0 -64 5 -78 19 -22 22 -63 23 -112 3 -19 -8 -39 -15 -43 -14
-20 3 -52 -15 -56 -32 -6 -23 -34 -25 -58 -3 -12 11 -48 18 -118 23 -103 6
-135 1 -145 -28 -3 -9 -16 -43 -29 -76 l-23 -60 -45 -3 c-86 -6 -131 66 -74
119 13 13 25 29 25 34 0 6 9 18 20 28 11 9 20 20 20 25 0 8 -68 35 -170 69
-25 8 -53 19 -62 24 -10 5 -27 9 -37 9 -11 0 -23 5 -26 10 -6 10 -35 -11 -35
-24 0 -13 -120 -126 -134 -126 -8 0 -22 -10 -30 -22 -14 -20 -17 -20 -33 -5
-13 11 -23 13 -33 6 -13 -8 -13 -11 3 -23 23 -18 21 -33 -8 -52 -13 -9 -27
-25 -30 -35 -6 -19 -59 -79 -69 -79 -13 0 -56 49 -56 64 0 16 -1 16 -16 1 -9
-8 -14 -22 -11 -29 6 -15 -22 -46 -42 -46 -6 0 -31 -18 -56 -41 -40 -37 -48
-40 -98 -40 -45 0 -65 -7 -111 -35 -70 -44 -77 -81 -11 -55 24 10 55 -4 55
-25 0 -9 3 -14 7 -12 13 6 72 41 125 75 28 18 55 30 60 27 5 -3 15 -1 22 5 19
16 79 2 72 -16 -4 -8 -6 -23 -6 -34 0 -11 -20 -31 -55 -53 -43 -28 -59 -46
-76 -86 -12 -27 -22 -50 -23 -51 -11 -7 -116 -6 -121 1 -10 17 -51 11 -70 -10
-10 -11 -38 -22 -64 -26 -56 -9 -110 -41 -147 -90 -24 -31 -32 -35 -57 -30
-23 5 -30 2 -34 -14 -7 -25 -16 -25 -70 1 -54 26 -84 22 -101 -14 -16 -32 -47
-47 -100 -47 -71 0 -80 -7 -75 -51 l6 -39 -78 0 c-57 0 -76 -3 -72 -12 2 -7
15 -12 28 -11 69 7 320 9 329 3 6 -4 10 -13 8 -21 -2 -9 8 -15 27 -17 17 -2
34 -8 39 -13 6 -5 43 -9 83 -9 56 0 75 4 79 15 5 11 11 12 25 4 42 -22 5 -44
-68 -40 -46 2 -58 -12 -20 -24 19 -6 17 -8 -18 -15 -29 -6 -44 -4 -56 6 -9 8
-18 11 -22 8 -6 -6 -176 -17 -242 -16 -129 2 -275 13 -295 21 -15 6 -19 10 -9
10 9 1 28 12 43 26 23 22 26 29 20 67 -4 24 -8 44 -9 46 -1 2 -23 -2 -49 -9
l-46 -11 0 -54 c0 -51 -1 -54 -25 -54 -22 0 -25 4 -25 40 0 22 -3 40 -8 40
-20 0 -52 -34 -52 -55 0 -20 -6 -24 -50 -30 -40 -5 -50 -11 -50 -25 0 -23 -39
-68 -60 -71 -46 -5 -54 21 -20 63 16 21 18 35 13 77 -6 56 12 91 48 91 23 0
29 11 23 37 -4 15 -12 19 -30 15 -19 -3 -24 0 -24 16 0 15 9 22 30 27 17 4 30
11 30 16 0 11 75 59 94 59 8 0 16 -5 18 -11 7 -20 42 0 65 35 22 33 55 55 173
112 30 15 67 33 82 41 15 7 46 18 70 23 24 5 55 12 71 16 24 6 27 4 27 -19 0
-47 56 -40 79 10 14 31 41 19 41 -18 0 -22 5 -29 19 -29 22 0 36 15 46 50 4
14 18 37 31 52 12 16 25 36 29 47 3 10 26 26 50 36 46 17 65 43 23 30 -55 -16
-64 -16 -82 4 -19 21 -19 22 30 72 86 89 99 100 124 106 24 5 101 44 200 101
59 34 270 190 270 199 0 5 16 26 35 47 19 22 35 43 35 48 0 4 43 8 95 8 52 0
95 -3 95 -6 0 -4 -20 -32 -45 -62 -58 -70 -60 -102 -2 -41 23 25 53 59 67 77
l25 32 112 0 c103 0 111 -1 106 -19 -3 -11 2 -21 12 -25 23 -8 35 1 36 27 1
18 2 19 6 4 4 -15 11 -17 36 -11 18 3 34 10 35 15 5 12 172 12 172 0 0 -5 13
-12 29 -16 16 -3 36 -14 46 -24 9 -11 24 -17 34 -14 11 3 22 0 25 -6 16 -26
96 -4 96 25 0 11 6 14 16 10 11 -4 18 1 21 14 4 16 14 20 49 20 23 0 46 -4 49
-10 3 -5 19 -10 36 -10 16 0 29 5 29 10 0 6 73 10 200 10 l200 0 0 320 0 320
75 0 75 0 0 -2470 c0 -1640 3 -2470 10 -2470 7 0 10 837 10 2490 l0 2490
-5130 0 -5130 0 0 -525z m315 250 c0 -43 -3 -50 -21 -53 -15 -2 -24 -13 -28
-34 -11 -55 -31 -68 -104 -68 -94 0 -102 10 -102 122 l0 89 128 -3 127 -3 0
-50z m332 -57 c30 -28 31 -83 1 -115 -46 -49 -128 -14 -128 56 0 71 76 107
127 59z m399 14 c18 -12 36 -52 30 -68 -4 -9 -21 -14 -56 -14 -27 0 -50 -4
-50 -8 0 -18 26 -32 57 -32 23 0 33 -5 33 -15 0 -22 -72 -20 -101 4 -33 27
-33 95 0 122 23 19 67 25 87 11z m170 0 c18 -12 36 -52 30 -68 -4 -9 -21 -14
-56 -14 -27 0 -50 -4 -50 -8 0 -18 26 -32 57 -32 23 0 33 -5 33 -15 0 -22 -72
-20 -101 4 -33 27 -33 95 0 122 23 19 67 25 87 11z m358 -8 c11 -11 16 -35 16
-80 l0 -64 -49 0 c-52 0 -81 17 -81 47 0 28 31 53 66 53 26 0 32 4 28 15 -4 9
-19 15 -40 15 -24 0 -34 5 -34 15 0 21 73 20 94 -1z m290 -3 c10 -11 16 -30
14 -43 -3 -20 -9 -23 -56 -26 -48 -3 -51 -5 -42 -23 8 -14 21 -19 51 -19 54 0
47 -24 -8 -28 -52 -4 -83 25 -83 77 0 68 81 109 124 62z m1056 -370 c0 -16 21
-75 51 -146 4 -11 26 -72 48 -135 21 -63 58 -164 81 -225 60 -158 75 -199 110
-300 18 -49 37 -94 44 -100 7 -6 9 -22 6 -40 -5 -27 -9 -30 -40 -27 -33 2 -50
-9 -50 -35 0 -9 16 -13 46 -13 38 0 45 -3 42 -17 -2 -13 -15 -19 -46 -21 l-42
-3 0 -44 c0 -24 5 -47 10 -50 6 -4 33 -4 60 0 l50 7 0 93 c0 84 3 97 23 121
18 20 33 27 64 28 47 1 56 -4 48 -26 -4 -10 -15 -13 -31 -10 -32 6 -54 -14
-54 -49 0 -27 3 -29 40 -29 29 0 40 -4 40 -15 0 -10 -14 -17 -40 -21 -39 -6
-40 -7 -40 -48 0 -30 16 -73 61 -161 33 -66 78 -166 101 -222 l40 -102 44 6
c30 4 44 2 44 -6 0 -6 -11 -11 -25 -11 -33 0 -32 -10 7 -41 27 -23 31 -30 22
-50 -11 -24 2 -75 45 -173 27 -61 19 -70 -56 -67 -53 2 -56 1 -38 -12 16 -13
17 -17 6 -31 -8 -9 -9 -16 -3 -16 6 0 13 6 16 13 3 8 8 7 16 -6 9 -14 15 -16
25 -7 8 7 23 9 35 5 14 -4 22 -1 26 10 6 15 10 14 29 -8 13 -13 31 -47 41 -75
18 -50 18 -51 -1 -73 l-20 -22 23 5 c12 4 22 3 22 0 0 -9 35 -54 82 -106 20
-23 53 -60 74 -84 20 -24 43 -41 50 -38 7 3 16 0 20 -5 3 -6 17 -9 30 -6 16 3
24 0 24 -9 0 -16 34 -36 58 -33 53 5 75 -3 113 -41 22 -22 52 -42 67 -46 15
-3 54 -11 87 -19 33 -7 87 -19 120 -25 78 -16 128 -31 121 -37 -2 -3 8 -17 24
-31 19 -18 31 -41 35 -69 l7 -43 -44 1 c-23 0 -72 6 -108 13 -52 10 -66 16
-68 32 -2 14 7 25 33 37 20 9 45 17 55 17 11 0 20 5 20 10 0 6 -10 10 -22 10
-13 0 -68 12 -123 26 -116 30 -205 44 -205 31 0 -13 -43 -4 -48 11 -2 6 3 12
12 12 18 0 19 2 10 24 -3 9 -17 16 -29 16 -27 0 -41 15 -24 26 8 4 7 9 -2 15
-7 4 -16 5 -19 1 -24 -33 -101 -54 -115 -32 -8 12 -105 63 -105 54 0 -3 6 -11
13 -18 6 -8 23 -28 37 -45 45 -58 60 -71 79 -71 11 0 26 -8 33 -18 30 -42 171
-99 293 -119 17 -3 39 -13 50 -23 19 -16 202 -80 230 -80 7 0 27 -11 43 -25
27 -23 38 -24 168 -28 169 -5 184 -1 175 45 l-7 33 -117 16 c-95 13 -123 21
-142 39 -14 13 -25 28 -25 34 0 6 -9 17 -20 24 -12 7 -18 17 -15 22 10 16 49
11 101 -11 33 -15 77 -23 139 -27 49 -2 99 -9 110 -15 11 -5 52 -12 92 -14 67
-3 73 -1 73 17 0 11 -4 20 -10 20 -20 0 -9 21 16 30 21 8 24 13 14 25 -6 8 -9
18 -6 23 11 18 68 22 100 8 41 -19 191 -32 200 -17 7 11 86 16 86 6 0 -3 -7
-17 -16 -30 -19 -29 -75 -49 -115 -41 -38 7 -119 -4 -119 -17 0 -21 -37 -36
-91 -37 -74 0 -92 -18 -61 -60 12 -16 22 -36 22 -45 0 -8 17 -22 40 -31 22 -9
40 -22 40 -30 0 -8 6 -14 13 -14 6 -1 23 -10 36 -20 19 -16 21 -23 11 -35 -19
-22 -74 -28 -132 -14 -57 14 -106 13 -146 -2 -24 -9 -24 -10 -7 -29 21 -23 20
-25 -18 -34 -27 -6 -28 -5 -25 26 3 31 1 33 -33 36 -47 4 -93 -14 -85 -33 8
-21 1 -19 -31 11 -24 22 -34 25 -71 20 -56 -8 -66 -14 -51 -32 23 -28 -3 -35
-81 -23 -40 6 -86 8 -104 5 -64 -13 -154 -4 -276 24 -303 72 -424 117 -503
188 -23 21 -55 44 -71 52 -16 8 -35 26 -44 40 -8 14 -23 37 -33 52 -10 14 -24
48 -30 75 -24 100 -66 129 -118 84 -31 -27 -51 -17 -51 25 0 39 6 43 82 53 41
5 55 11 64 28 6 13 18 31 26 40 50 57 22 103 -58 97 -28 -2 -60 -12 -76 -24
-22 -16 -43 -20 -111 -20 -89 0 -107 6 -80 25 25 19 6 38 -32 32 -26 -4 -37 0
-54 19 -11 13 -26 24 -31 24 -6 0 -15 11 -19 24 -6 13 -29 32 -55 45 -52 24
-56 38 -22 70 26 24 39 26 169 19 58 -3 67 -1 68 15 1 9 2 22 3 28 0 6 21 18
46 26 25 8 49 19 54 23 10 10 -98 25 -113 16 -5 -4 -65 -9 -132 -11 -189 -7
-199 -9 -234 -64 -39 -60 -56 -59 -75 6 -17 60 -30 66 -98 47 -43 -12 -89 -5
-119 18 -7 6 -47 14 -89 19 -43 6 -98 19 -123 30 -34 14 -63 18 -109 16 -53
-3 -62 -1 -60 12 2 9 23 26 48 38 35 18 61 23 124 23 95 0 228 33 268 66 36
29 91 37 153 22 36 -9 51 -19 54 -33 6 -34 52 -85 76 -85 22 0 127 72 156 106
10 12 10 20 1 35 -10 15 -42 143 -42 165 0 2 6 4 14 4 8 0 16 -17 20 -47 10
-77 21 -84 42 -25 20 56 35 65 50 31 8 -18 11 -19 22 -7 12 15 4 26 -48 73 -6
6 -16 18 -23 28 -23 34 -79 37 -179 11 -50 -13 -103 -25 -117 -26 -39 -3 -92
28 -126 72 -16 22 -41 42 -55 46 -60 14 -62 16 -57 37 5 19 -3 26 -55 50 -50
22 -58 29 -49 41 7 8 26 18 42 21 32 7 36 17 15 35 -8 6 -20 35 -26 63 -30
131 59 230 179 201 26 -7 36 -14 36 -29 0 -18 -6 -20 -56 -17 -48 3 -60 0 -85
-21 -26 -23 -29 -31 -29 -85 0 -50 4 -65 24 -86 23 -24 30 -26 104 -24 l78 2
-5 31 c-13 65 29 138 86 150 62 14 112 -28 124 -104 7 -46 37 -58 48 -18 7 28
8 106 0 143 -5 29 -7 30 -117 47 -62 10 -129 17 -149 17 -20 0 -44 7 -52 16
-20 19 -20 28 -2 21 8 -3 22 1 33 8 14 11 16 16 6 26 -7 7 -13 22 -13 32 0 14
-5 18 -19 14 -11 -3 -22 1 -25 9 -8 21 -82 54 -123 54 -21 0 -72 5 -114 12
-73 11 -77 14 -90 45 -7 17 -15 30 -19 28 -4 -2 -5 7 -2 20 2 14 9 22 14 19 6
-4 5 4 -2 16 -9 17 -17 20 -37 15 -14 -3 -38 -9 -54 -12 -26 -5 -29 -10 -35
-67 -5 -41 -9 -53 -13 -38 -3 13 -10 22 -16 20 -5 -2 -9 -8 -7 -15 1 -6 -3
-15 -10 -19 -16 -10 -108 -13 -108 -3 0 17 -62 29 -135 27 -71 -3 -87 -7 -130
-35 -73 -46 -112 -51 -171 -19 -56 30 -93 32 -155 11 -24 -9 -49 -13 -56 -11
-7 3 -13 1 -13 -4 0 -12 -43 -20 -122 -22 -71 -2 -100 -21 -47 -32 37 -7 38
-33 2 -47 -34 -13 -37 -13 -143 0 -117 14 -179 28 -208 47 -33 22 -87 20 -151
-5 -42 -17 -78 -22 -186 -24 -177 -3 -185 5 -62 67 48 24 83 50 102 75 16 21
38 42 50 47 11 5 22 20 23 34 2 14 10 32 17 40 7 8 16 30 20 49 10 45 26 63
42 46 6 -7 23 -10 37 -8 21 4 26 11 26 37 0 31 -1 32 -35 28 -19 -2 -35 -8
-35 -13 0 -5 -7 -9 -15 -9 -8 0 -15 9 -15 20 0 49 -95 88 -229 95 -98 5 -169
24 -177 47 -3 10 -21 25 -40 34 -31 15 -34 20 -34 59 0 45 -10 55 -53 55 -24
0 -36 20 -67 108 l-19 52 1365 0 c1325 0 1364 -1 1364 -19z m854 7 c5 -10 7
-10 12 0 4 9 232 12 1089 12 l1083 0 5 -26 c3 -18 0 -27 -12 -31 -9 -3 -34
-24 -55 -46 -35 -35 -41 -38 -51 -23 -15 20 -24 20 -47 -1 -12 -11 -38 -17
-82 -18 -55 -1 -68 -5 -86 -26 -12 -13 -23 -19 -26 -14 -17 37 -21 39 -58 17
-30 -18 -38 -19 -42 -8 -6 15 -78 20 -99 8 -17 -10 -49 -10 -63 1 -9 7 -18 5
-31 -7 -14 -13 -33 -16 -89 -12 -39 2 -73 2 -76 -2 -4 -3 -27 -5 -51 -5 -25 1
-45 -3 -45 -7 0 -5 -16 -14 -35 -21 -19 -7 -35 -17 -35 -21 0 -4 -11 -3 -25 2
-15 6 -26 6 -30 -1 -4 -5 -11 -7 -16 -3 -5 3 -15 1 -22 -4 -7 -5 -31 -14 -53
-19 -46 -11 -74 -2 -75 25 0 10 -3 12 -6 5 -7 -18 -40 -16 -47 3 -5 13 -9 14
-21 4 -12 -10 -16 -9 -21 5 -5 11 -14 15 -29 11 -14 -4 -28 0 -35 9 -14 17
-50 20 -50 5 0 -15 -57 -12 -63 4 -3 7 0 19 6 26 10 10 8 10 -8 3 -40 -20 -94
-25 -116 -10 -14 10 -16 16 -8 19 25 8 -29 48 -66 48 -19 0 -35 5 -35 10 0 16
-27 12 -34 -5 -7 -19 -33 -9 -41 15 -4 12 -20 20 -50 24 -25 4 -47 11 -50 17
-8 12 -45 12 -45 -1 0 -5 -11 -10 -24 -10 -13 0 -26 -6 -28 -12 -3 -7 -13 -13
-24 -13 -11 0 -19 -7 -19 -17 0 -25 -16 -27 -29 -3 -6 11 -12 22 -13 24 -1 2
-14 -4 -27 -13 -31 -20 -47 -21 -40 -2 6 15 -34 48 -48 40 -5 -3 -13 -17 -18
-30 -10 -25 -34 -32 -45 -14 -4 6 -2 17 5 24 14 18 -6 26 -36 15 -30 -11 -52
5 -35 25 7 8 10 20 6 26 -4 6 13 10 49 10 34 0 57 -5 60 -12z m3556 -12 c0
-17 10 -30 35 -45 20 -11 44 -34 53 -51 17 -30 32 -39 32 -20 0 6 7 10 16 10
11 0 14 -8 12 -32 -3 -29 -7 -33 -35 -36 -40 -4 -57 -31 -48 -75 9 -39 115
-146 148 -148 12 -1 34 -3 49 -5 26 -3 29 1 34 37 6 35 8 38 20 22 7 -10 14
-13 14 -8 0 19 44 37 107 45 45 6 68 14 81 29 9 11 64 46 122 77 117 63 287
173 315 204 15 17 31 20 92 20 41 0 73 -4 71 -9 -9 -24 -196 -178 -279 -231
-120 -75 -209 -113 -269 -115 -67 -2 -125 -29 -140 -65 -6 -14 -12 -55 -14
-91 -3 -68 -21 -109 -47 -109 -9 0 -33 -13 -54 -30 -21 -16 -45 -30 -54 -30
-9 0 -34 -11 -56 -25 -60 -37 -80 -44 -203 -75 -108 -28 -158 -30 -227 -9 -5
2 -20 -2 -32 -9 -19 -11 -23 -10 -23 1 0 23 -29 42 -42 29 -18 -18 -62 26 -47
45 6 7 20 13 31 13 18 0 19 5 15 43 -3 23 -9 56 -12 74 -6 28 -3 37 24 63 17
18 31 41 31 53 0 12 7 31 16 42 13 17 16 18 24 5 8 -13 10 -13 10 2 0 9 -4 19
-8 22 -15 9 -1 66 15 66 11 0 13 7 9 24 -3 14 -2 28 4 31 5 3 10 13 10 22 0
18 55 176 70 205 6 10 10 27 10 38 0 18 7 20 60 20 57 0 60 -1 60 -24z m-398
-677 c-2 -19 -14 -61 -27 -94 -45 -114 -57 -157 -47 -167 7 -7 16 1 28 23 9
19 26 45 37 59 l20 25 -5 -51 c-3 -29 -16 -81 -30 -115 -34 -84 -52 -164 -44
-194 4 -14 2 -33 -4 -42 -13 -24 -37 -100 -45 -145 -6 -31 -4 -38 14 -47 25
-14 27 -34 6 -51 -8 -7 -12 -16 -9 -21 3 -5 -3 -12 -13 -16 -26 -9 -53 -34
-53 -50 0 -9 15 -13 54 -13 30 0 58 -4 61 -10 4 -6 -7 -10 -24 -10 -39 0 -39
-11 0 -34 23 -14 29 -24 27 -44 -3 -24 -8 -27 -45 -30 -26 -2 -43 1 -43 7 0 6
13 11 29 11 34 0 50 17 26 27 -10 3 -20 0 -25 -6 -4 -7 -10 -12 -14 -12 -24 3
-36 -1 -36 -14 0 -11 -14 -15 -55 -17 -30 -1 -65 -2 -77 -2 -19 -1 -22 4 -20
24 1 14 11 37 22 52 11 15 20 34 20 43 0 8 7 15 15 15 10 0 15 10 15 27 0 15
6 45 14 68 7 22 21 67 31 100 10 33 23 77 31 97 13 36 13 37 -17 43 -92 20
-135 132 -89 233 15 33 29 47 62 62 24 11 57 20 73 20 29 0 32 4 49 63 9 34
21 76 26 92 35 122 70 175 62 94z m-4784 -108 c9 -5 24 -12 33 -14 19 -6 32
-58 22 -95 -11 -45 -42 -77 -108 -113 -62 -33 -65 -33 -92 -18 -91 53 -72 198
32 240 28 11 92 11 113 0z m2400 -125 c1 -2 0 -10 -3 -18 -4 -9 -15 -13 -33
-10 -31 4 -46 -9 -56 -50 -6 -27 -5 -28 39 -28 33 0 45 -4 45 -14 0 -10 -14
-16 -42 -18 l-43 -3 -3 -92 c-3 -86 -4 -93 -23 -93 -20 0 -20 5 -17 144 3 123
6 147 22 164 10 12 28 23 40 25 19 4 67 -1 74 -7z m-415 -32 c19 -6 21 -13 9
-32 -6 -9 -16 -10 -40 -1 -45 16 -98 -4 -118 -43 -21 -40 -15 -130 11 -158 23
-25 76 -35 114 -22 24 8 31 7 35 -5 8 -21 5 -23 -44 -34 -132 -30 -220 96
-160 229 31 69 101 93 193 66z m1185 -11 c-3 -15 -16 -19 -71 -21 l-67 -3 0
-39 0 -40 60 0 c53 0 60 -2 60 -20 0 -18 -7 -20 -60 -20 l-60 0 0 -70 c0 -63
-2 -70 -20 -70 -19 0 -20 7 -20 150 l0 150 91 0 c81 0 90 -2 87 -17z m1102
-28 c0 -34 1 -35 40 -35 29 0 40 -4 40 -15 0 -11 -11 -15 -40 -15 l-40 0 0
-69 c0 -77 11 -95 57 -89 41 5 44 -27 3 -35 -37 -8 -75 6 -89 32 -12 21 -15
243 -4 254 17 18 33 5 33 -28z m2916 18 c30 -40 8 -95 -48 -120 -33 -15 -51
-9 -67 20 -6 12 -16 29 -23 38 -9 13 -8 24 2 48 12 29 15 31 68 31 40 0 58 -5
68 -17z m-8387 -37 c7 -13 11 -32 9 -42 -5 -27 -65 -54 -120 -54 -37 0 -50 -4
-58 -20 -6 -11 -18 -20 -26 -20 -11 0 -13 6 -9 20 4 11 2 20 -4 20 -23 0 -10
47 22 77 25 25 42 33 82 36 28 2 59 4 71 5 13 1 25 -7 33 -22z m2630 -17 c34
-12 61 -53 61 -94 0 -25 -1 -25 -75 -25 -83 0 -94 -11 -54 -51 17 -17 30 -20
65 -16 37 4 44 2 44 -13 0 -31 -91 -36 -131 -7 -26 19 -39 53 -39 100 0 48 26
92 64 107 28 12 28 12 65 -1z m267 -22 c12 -12 24 -39 27 -59 l6 -38 -79 0
c-74 0 -78 -1 -73 -21 9 -34 48 -52 94 -45 35 6 40 4 37 -11 -9 -47 -126 -33
-158 20 -67 110 60 243 146 154z m487 1 c13 -16 17 -39 17 -108 l0 -87 -43 -6
c-80 -11 -127 14 -127 69 0 42 30 64 87 64 35 0 43 3 43 19 0 28 -25 43 -67
39 -29 -2 -38 1 -41 14 -7 34 101 31 131 -4z m400 2 c10 -9 21 -36 24 -59 l6
-41 -77 0 c-84 0 -95 -11 -55 -51 17 -17 30 -20 65 -16 37 4 44 2 44 -13 0
-11 -10 -20 -30 -23 -47 -10 -88 3 -115 35 -48 57 -26 162 39 188 28 12 77 2
99 -20z m895 -5 c19 -23 22 -37 22 -111 0 -77 -2 -84 -20 -84 -18 0 -20 7 -20
73 0 90 -16 120 -63 115 l-32 -3 -3 -92 c-3 -85 -4 -93 -23 -93 -19 0 -20 6
-17 107 l3 108 30 7 c51 11 98 1 123 -27z m211 24 c44 -15 51 -35 51 -133 0
-79 -2 -86 -20 -86 -18 0 -20 7 -20 79 0 92 -13 114 -64 109 l-31 -3 -3 -92
c-3 -85 -4 -93 -23 -93 -19 0 -20 6 -17 108 l3 107 35 6 c54 10 55 10 89 -2z
m245 -3 c33 -14 56 -54 56 -97 0 -17 -9 -19 -75 -19 -68 0 -75 -2 -75 -20 0
-31 44 -53 90 -47 34 4 40 2 40 -13 0 -22 -55 -32 -105 -19 -44 12 -68 48 -69
103 -1 54 20 95 59 112 38 17 39 17 79 0z m235 -2 c11 -10 -10 -32 -28 -27
-11 3 -32 2 -47 -1 -38 -10 -26 -36 31 -65 47 -25 50 -28 50 -66 0 -38 -2 -41
-39 -53 -49 -16 -106 -7 -106 18 0 15 8 18 53 16 46 -1 52 1 52 19 0 14 -14
27 -43 41 -24 11 -48 27 -53 35 -22 36 0 80 46 92 19 5 76 -1 84 -9z m-4683
-254 c6 -6 12 -27 11 -47 -1 -28 -7 -39 -30 -53 -16 -10 -34 -29 -41 -42 -6
-12 -21 -24 -33 -26 -12 -2 -25 -12 -28 -23 -12 -36 -39 -41 -76 -14 -18 14
-41 25 -50 25 -28 0 -34 -21 -11 -39 18 -14 21 -24 17 -72 -3 -31 -9 -68 -14
-81 -14 -37 -58 -68 -98 -68 -39 0 -93 25 -93 43 0 7 -27 39 -60 72 -75 74
-75 91 -1 117 30 10 62 25 71 33 10 9 35 18 56 21 101 13 104 14 104 36 0 17
-5 20 -30 16 -41 -6 -38 5 7 23 72 28 98 44 121 79 49 75 45 74 109 40 31 -17
62 -35 69 -40z m5554 -30 c0 -6 -4 -10 -9 -10 -5 0 -22 -5 -38 -11 -46 -17 -9
-28 128 -35 78 -4 131 -12 144 -20 12 -9 49 -14 102 -14 49 0 83 -4 83 -10 0
-5 -4 -10 -10 -10 -5 0 -10 -4 -10 -10 0 -5 8 -10 18 -10 52 0 91 -21 111 -60
l21 -40 -42 -31 c-24 -17 -50 -28 -60 -25 -13 3 -20 -3 -24 -20 -6 -22 -8 -23
-33 -10 -14 8 -67 17 -118 21 -108 8 -126 20 -94 61 27 34 28 80 1 94 -37 20
-132 23 -189 6 -58 -17 -153 -20 -186 -6 -17 7 -15 9 13 9 38 1 41 13 10 34
-23 14 -22 15 22 28 25 7 52 13 60 13 9 1 16 12 17 26 0 14 1 28 2 31 2 10 81
9 81 -1z m-4717 -62 c20 -10 23 -66 5 -90 -29 -37 -115 -92 -157 -100 -39 -7
-48 -5 -68 14 -30 28 -32 98 -2 139 35 49 158 70 222 37z m-1933 -23 c16 -10
4 -142 -16 -172 -17 -27 -58 -30 -108 -9 -46 19 -50 29 -31 87 26 76 54 104
103 103 22 -1 46 -5 52 -9z m8246 -46 c27 -12 52 -27 56 -33 11 -16 10 -60 -2
-72 -5 -5 -6 -24 0 -48 5 -22 6 -44 4 -48 -3 -5 -1 -15 6 -22 6 -8 8 -25 5
-39 -4 -14 -2 -28 5 -32 15 -9 32 -53 34 -88 1 -20 -4 -27 -18 -27 -24 0 -95
33 -159 74 -40 25 -47 34 -43 52 4 13 1 26 -4 29 -20 13 11 35 49 35 31 0 85
19 55 20 -6 0 -11 14 -12 30 0 17 4 30 9 30 5 0 9 5 9 10 0 6 -21 16 -46 22
-33 9 -50 20 -60 40 -8 15 -24 32 -35 39 -24 12 -19 20 24 36 47 17 69 15 123
-8z m464 -84 c23 -8 57 -15 74 -15 57 0 176 -86 176 -128 0 -15 9 -38 20 -52
26 -34 25 -54 -5 -74 -35 -23 -63 -12 -73 27 -8 31 -10 32 -65 32 -80 0 -92
15 -79 92 11 66 4 83 -36 83 -32 0 -89 -35 -97 -60 -4 -11 -17 -23 -30 -26
-13 -3 -29 -12 -36 -20 -18 -21 -45 -17 -57 10 -8 17 -6 35 5 72 8 27 17 55
19 62 5 17 131 16 184 -3z m633 -79 c12 -7 52 -22 90 -32 91 -25 87 -41 -10
-46 -128 -6 -216 28 -192 73 12 23 78 26 112 5z m-8129 -60 c33 -14 78 -66
108 -125 10 -20 18 -36 18 -38 0 -1 -19 -15 -41 -30 -36 -24 -52 -27 -113 -27
-99 0 -179 26 -209 67 -51 68 -40 133 26 163 37 17 161 11 211 -10z m6184 -72
c12 -4 22 -10 22 -14 0 -16 -115 -80 -142 -80 -15 0 -45 -7 -67 -16 -30 -12
-44 -13 -60 -4 -12 6 -21 15 -21 19 0 11 97 61 117 61 7 0 18 9 25 20 10 15
24 20 58 20 25 0 55 -3 68 -6z m-6691 -110 c64 -43 64 -53 1 -151 -44 -69 -68
-83 -101 -59 -91 64 -120 132 -81 192 39 59 110 66 181 18z m-846 6 c30 -17
22 -44 -25 -88 -53 -49 -107 -63 -145 -39 -14 9 -43 24 -63 33 -21 9 -38 20
-38 25 0 15 45 39 75 39 23 0 90 15 173 39 2 1 12 -4 23 -9z m2006 -166 c59 3
70 0 107 -25 23 -15 49 -37 58 -48 10 -12 25 -21 33 -21 8 0 15 -5 15 -10 0
-18 -41 -27 -89 -18 -25 4 -68 12 -96 16 -72 12 -179 71 -183 101 -5 35 17 43
56 21 26 -16 47 -19 99 -16z m-1268 -120 c31 -9 73 -21 93 -26 20 -6 51 -26
69 -44 l33 -34 -24 -25 c-14 -15 -35 -25 -51 -25 -60 0 -62 -11 -9 -48 27 -19
50 -39 50 -43 0 -5 6 -9 14 -9 27 0 30 -23 5 -43 l-24 -19 -10 26 c-15 36 -83
90 -131 104 -23 7 -69 15 -103 18 -50 6 -62 4 -67 -9 -16 -42 54 -87 134 -87
25 0 35 -6 44 -25 10 -22 9 -29 -8 -45 -10 -10 -40 -25 -66 -31 -40 -11 -52
-10 -85 3 -21 9 -50 19 -64 22 -66 14 -187 167 -173 220 12 50 82 95 189 122
69 17 119 17 184 -2z m5357 -25 c-5 -25 0 -39 23 -68 16 -20 44 -67 62 -106
34 -69 34 -71 29 -171 -5 -84 -10 -108 -32 -145 -99 -167 -375 -303 -670 -330
-270 -24 -261 -24 -249 -2 5 11 7 23 4 27 -10 9 -99 7 -127 -4 -15 -5 -28 -6
-31 0 -8 14 29 30 72 31 58 1 107 22 111 47 3 22 4 22 32 5 27 -15 33 -15 107
2 72 17 82 22 133 74 l55 56 -42 3 c-23 2 -51 -2 -62 -7 -11 -6 -22 -7 -25 -3
-3 5 40 33 96 63 102 54 248 175 248 205 0 19 -49 18 -69 0 -19 -17 -192 -76
-222 -76 -12 0 -19 5 -17 13 4 11 19 20 105 62 83 41 113 58 113 66 0 13 -24
11 -56 -6 -35 -18 -107 -20 -102 -3 3 7 47 26 99 43 92 30 105 37 179 103 21
17 41 32 46 32 5 0 36 21 69 46 33 25 72 48 88 51 15 3 27 9 27 14 0 5 3 9 6
9 4 0 4 -14 0 -31z m2096 -280 c14 0 32 -6 38 -14 7 -8 22 -15 34 -15 29 0 66
-11 66 -19 0 -15 -174 -91 -187 -82 -17 10 -33 48 -33 75 0 19 -7 27 -26 32
-21 5 -30 1 -48 -20 -19 -24 -27 -27 -70 -24 -31 2 -51 8 -54 17 -3 10 2 12
19 8 19 -5 27 -1 34 16 11 25 76 38 155 31 25 -3 57 -4 72 -5z m-5193 -20 c17
-6 31 -15 31 -19 0 -5 3 -15 6 -24 4 -11 -2 -17 -23 -22 -15 -4 -46 -15 -68
-25 -22 -10 -56 -19 -75 -19 -26 0 -31 -3 -22 -12 7 -7 12 -21 12 -33 0 -14
15 -30 50 -50 45 -27 67 -51 56 -63 -3 -2 -28 -4 -57 -4 -37 0 -54 4 -61 16
-5 9 -16 16 -23 16 -8 0 -15 7 -15 15 0 8 4 15 9 15 15 0 22 33 9 42 -24 14
-39 8 -49 -20 -18 -53 -134 -88 -217 -66 -42 12 -22 38 38 49 32 6 49 14 40
17 -9 4 -3 7 15 7 17 1 43 -6 59 -14 15 -8 30 -15 33 -15 2 0 1 20 -3 46 -5
37 -3 47 12 59 11 8 29 15 42 15 25 0 28 10 10 28 -20 20 15 46 80 58 78 15
75 15 111 3z m-1731 -71 c7 -7 12 -31 12 -54 0 -37 -3 -43 -32 -55 -17 -7 -51
-28 -75 -46 -24 -18 -51 -33 -60 -33 -9 0 -29 -12 -44 -26 -28 -27 -80 -43
-141 -44 -45 0 -56 14 -28 37 12 10 35 37 52 61 33 48 68 55 78 15 6 -28 22
-18 40 26 12 31 12 35 -5 47 -30 22 -61 16 -92 -16 -15 -16 -34 -35 -42 -42
-7 -7 -37 -37 -66 -67 -42 -43 -56 -52 -73 -47 -27 9 -28 18 -2 41 16 14 17
21 8 32 -6 8 -20 12 -30 10 -23 -6 -33 8 -16 23 39 32 109 71 153 84 97 29
181 45 238 45 31 0 65 5 75 10 23 14 36 13 50 -1z m6049 -3 c9 -16 55 -21 95
-11 21 6 29 3 41 -16 8 -12 18 -33 22 -45 6 -22 4 -23 -44 -23 -28 0 -60 -5
-70 -12 -26 -16 -45 -5 -66 38 -17 36 -17 38 1 51 16 12 17 15 4 23 -9 6 -10
10 -3 10 7 0 16 -7 20 -15z m-7357 -65 c25 -16 64 -38 88 -49 47 -22 49 -27
25 -53 -18 -21 -15 -27 17 -33 38 -7 46 -23 17 -30 -37 -10 -229 2 -278 16
-53 16 -99 59 -99 93 0 21 5 26 24 26 14 0 28 5 32 11 13 21 70 49 99 48 17 0
50 -13 75 -29z m7844 -79 c20 -22 85 -56 128 -66 15 -4 32 -13 39 -21 9 -11 6
-16 -16 -24 -14 -5 -30 -10 -34 -10 -5 0 -20 -10 -35 -21 -33 -26 -78 -20
-113 13 -22 21 -33 22 -161 22 -75 -1 -153 -1 -172 -2 -19 -1 -65 1 -102 4
-40 4 -80 2 -99 -5 -26 -9 -39 -8 -68 6 -68 34 -42 41 160 42 48 0 102 -4 120
-9 49 -14 115 -12 128 4 10 11 18 11 49 0 41 -13 118 -8 129 9 3 5 -1 15 -10
22 -33 24 -12 84 22 65 9 -4 25 -17 35 -29z m646 27 c14 0 38 3 53 7 16 4 38
3 50 -3 12 -6 36 -13 52 -15 l30 -3 -27 -14 c-24 -11 -28 -19 -28 -59 l0 -45
-29 31 c-30 33 -83 50 -119 39 -39 -13 -62 -15 -67 -6 -3 5 -12 7 -19 4 -17
-6 -21 0 -31 45 l-7 34 58 -8 c33 -4 70 -7 84 -7z m419 -158 c19 0 50 6 69 12
29 11 35 10 47 -5 6 -9 17 -17 24 -17 6 0 11 -2 11 -4 0 -2 3 -11 6 -20 5 -12
-1 -16 -23 -16 -59 0 -72 -44 -16 -57 61 -14 52 -31 -17 -32 -34 0 -69 -3 -79
-6 -10 -3 -31 -1 -46 5 -25 9 -27 14 -22 45 5 29 2 37 -21 54 -27 19 -27 19
-7 39 12 12 24 16 30 11 5 -5 25 -9 44 -9z m-279 -123 c0 -4 -7 -10 -15 -13
-8 -4 -15 -15 -15 -25 0 -12 -9 -21 -25 -25 -14 -3 -25 -12 -25 -20 0 -8 -1
-17 -1 -21 -1 -5 16 -12 37 -16 21 -4 51 -10 67 -14 39 -8 34 -23 -8 -23 -22
0 -38 -6 -41 -15 -8 -19 -23 -19 -43 -1 -15 14 -165 26 -176 14 -3 -3 -27 -1
-53 3 -26 5 -73 11 -104 14 -32 4 -58 11 -58 16 0 6 14 7 34 4 27 -6 39 -2 55
14 12 12 32 21 45 21 14 0 37 5 53 11 28 11 28 11 6 22 -13 5 -23 14 -23 18 0
12 40 32 80 39 48 9 210 7 210 -3z m283 -54 c28 -9 47 -18 42 -19 -6 -1 -23
-5 -39 -9 -21 -4 -26 -9 -17 -14 7 -5 22 -6 33 -3 16 4 18 1 12 -23 -5 -18 -2
-30 7 -36 20 -13 -63 -12 -97 1 -15 6 -32 17 -38 24 -15 19 -63 28 -84 17 -23
-12 -47 2 -39 23 8 21 48 36 95 36 20 0 44 5 52 10 19 12 13 13 73 -7z m-2704
-61 c9 -13 120 -26 134 -14 21 16 58 21 184 23 90 2 125 -1 137 -11 15 -12 15
-15 -4 -35 -16 -17 -18 -24 -8 -28 7 -3 -39 -5 -102 -6 -63 0 -137 -1 -165 -3
-55 -3 -287 11 -294 17 -5 6 13 11 64 21 25 5 33 9 20 11 -11 2 -40 9 -65 15
-41 11 -43 13 -20 20 32 9 111 3 119 -10z m874 -2 c7 -26 49 -28 45 -2 -3 15
8 17 83 20 71 2 88 0 100 -14 13 -16 10 -17 -33 -11 -34 5 -49 3 -58 -8 -10
-12 -9 -16 1 -18 8 -2 29 -9 48 -15 24 -8 39 -8 53 -1 25 13 39 1 17 -14 -24
-18 -354 -16 -394 1 l-30 14 34 14 c18 8 42 14 52 14 11 0 19 5 19 10 0 6 -6
10 -12 9 -7 -1 -22 -1 -33 0 -40 3 8 21 56 21 38 0 48 -4 52 -20z m1162 -463
c99 -2 120 -5 120 -17 0 -10 -7 -14 -20 -11 -11 2 -33 2 -50 1 -16 -1 -103 -3
-192 -5 -89 -1 -170 -5 -179 -9 -18 -7 -44 10 -44 29 0 9 27 13 102 14 56 1
104 3 106 5 2 2 11 2 20 0 9 -2 71 -5 137 -7z m-705 -173 c10 -26 46 -32 81
-14 15 9 26 7 47 -9 22 -15 43 -19 95 -19 69 1 84 -3 72 -21 -10 -17 -136 -13
-159 4 -25 19 -100 19 -115 1 -15 -18 -81 -28 -97 -15 -7 6 -18 8 -23 5 -16
-10 -24 14 -10 30 8 10 24 14 41 12 30 -5 50 9 26 17 -62 22 -71 27 -61 33 7
4 31 6 53 4 32 -3 43 -9 50 -28z m750 6 c0 -5 7 -7 15 -4 11 5 15 -1 15 -20 0
-25 2 -25 44 -20 55 8 96 -1 96 -21 0 -20 -112 -21 -129 -1 -9 10 -21 11 -54
3 -23 -5 -78 -10 -122 -11 -44 0 -85 -4 -92 -9 -20 -13 -23 9 -4 27 15 14 30
16 78 11 57 -7 59 -6 82 24 23 29 71 44 71 21z"/>
<path d="M1860 4155 c-16 -10 -49 -15 -95 -14 -105 0 -168 -13 -239 -52 -10
-6 -59 -15 -110 -21 -103 -11 -196 -34 -211 -53 -19 -23 -86 -38 -146 -31 -63
6 -72 1 -78 -44 0 -5 -9 -10 -19 -10 -28 0 -42 -20 -42 -60 0 -35 1 -36 56
-49 31 -7 75 -26 97 -42 50 -36 66 -35 220 11 20 6 37 16 37 23 0 7 12 18 28
26 30 15 182 31 182 19 0 -5 16 -8 35 -8 19 0 35 4 35 9 0 5 24 12 53 16 28 4
61 12 72 18 11 6 26 10 33 9 7 -2 29 2 48 8 31 11 37 9 65 -14 41 -35 54 -33
65 11 5 20 18 41 29 47 11 6 39 25 61 43 37 29 50 33 133 39 50 4 94 11 97 15
3 5 16 9 29 9 13 0 26 4 29 9 3 5 18 12 33 16 30 7 52 31 53 58 0 14 -5 17
-20 12 -32 -10 -281 -14 -306 -4 -13 4 -63 11 -111 14 -69 4 -93 2 -113 -10z"/>
<path d="M6744 3296 c-40 -18 -58 -62 -52 -126 6 -62 29 -90 74 -90 29 0 35 4
40 28 3 15 8 34 11 42 4 8 14 43 23 78 l16 62 -35 10 c-44 12 -39 12 -77 -4z"/>
<path d="M2340 1283 c-47 -7 -91 -10 -97 -8 -7 2 -13 0 -13 -5 0 -6 35 -10 79
-10 l79 0 -2 -32 c-1 -30 -5 -33 -36 -35 -19 0 -51 -5 -70 -11 l-35 -9 30 -7
c17 -4 45 -13 64 -18 42 -13 165 -13 206 1 17 5 24 10 18 10 -7 1 -13 6 -13
11 0 6 21 11 48 11 l47 2 -45 8 c-25 5 -76 9 -114 9 -63 -1 -68 1 -56 15 11
14 11 18 1 25 -17 10 -8 15 56 29 36 9 57 10 71 2 11 -6 29 -9 41 -6 11 2 23
-1 27 -6 3 -6 12 -5 21 3 9 7 50 18 92 24 71 11 64 12 -119 11 -107 -1 -233
-7 -280 -14z"/>
<path d="M1692 1051 c-8 -4 -13 -12 -13 -17 1 -5 -15 -12 -36 -17 -20 -4 -39
-10 -41 -12 -9 -8 70 -36 85 -31 21 9 63 -4 63 -19 0 -7 -10 -16 -22 -20 -22
-7 -22 -8 6 -12 35 -6 54 10 37 30 -9 12 -7 16 10 20 12 3 32 1 46 -4 16 -6
31 -5 44 1 25 14 24 26 -2 33 -11 3 -23 15 -26 26 -3 12 -6 21 -7 22 -14 6
-135 7 -144 0z"/>
<path d="M568 993 c-10 -3 -18 -10 -18 -17 0 -18 62 -27 128 -19 63 7 72 -11
12 -27 -66 -18 -36 -29 78 -29 128 0 152 9 93 35 -22 10 -41 21 -41 26 0 4 -9
8 -21 8 -11 0 -18 -4 -15 -9 3 -5 -1 -12 -10 -15 -23 -9 -34 -7 -34 4 0 6 7
10 15 10 21 0 19 16 -2 25 -21 8 -160 14 -185 8z"/>
<path d="M295 908 c-22 -5 -53 -7 -69 -4 -15 3 -73 3 -127 -1 -87 -5 -99 -8
-99 -25 0 -14 8 -18 38 -20 20 0 44 0 52 1 8 1 51 4 95 7 209 14 309 24 318
33 6 6 -19 9 -64 8 -41 -1 -81 1 -89 4 -8 4 -33 3 -55 -3z"/>
<path d="M1615 890 c-3 -5 -16 -10 -28 -11 l-22 0 23 -9 c13 -6 32 -6 46 0 16
6 29 5 41 -4 26 -19 5 -27 -57 -26 -82 3 -222 -1 -227 -6 -10 -10 11 -16 61
-19 29 -1 83 -6 120 -10 47 -5 76 -4 97 5 31 12 66 15 166 11 102 -4 127 -11
122 -32 -3 -12 0 -19 9 -19 8 0 14 6 14 13 0 13 39 28 103 42 44 9 31 23 -20
22 -38 -2 -48 2 -51 16 -2 12 3 17 17 17 11 0 23 4 26 10 7 11 -93 12 -110 1
-25 -15 -254 -16 -269 0 -13 12 -53 12 -61 -1z"/>
<path d="M808 822 c-60 -3 -70 -6 -95 -32 -25 -26 -35 -30 -85 -30 -70 0 -87
-6 -81 -29 3 -13 -2 -20 -18 -24 -34 -9 -42 2 -17 24 l23 19 -49 -2 c-29 -2
-51 -8 -54 -15 -2 -8 5 -13 18 -13 12 0 18 -4 15 -10 -3 -5 -25 -9 -48 -7 -37
2 -42 5 -39 25 3 23 -21 32 -33 12 -3 -5 -19 -10 -35 -10 -15 0 -30 -7 -33
-15 -5 -11 -25 -14 -94 -13 -96 2 -116 -4 -106 -29 5 -14 21 -15 127 -8 67 4
231 7 366 5 275 -2 262 -2 385 4 50 3 129 7 176 10 48 2 94 8 103 13 22 12
-137 18 -426 15 -202 -2 -238 0 -238 12 0 12 23 15 128 14 155 0 202 7 202 32
0 10 3 25 6 33 7 19 -14 23 -98 19z"/>
<path d="M1332 790 c-12 -5 -57 -9 -100 -9 -83 1 -152 -8 -152 -21 0 -10 75
-19 120 -15 42 4 252 7 298 4 18 -2 37 2 43 8 17 17 -41 45 -64 32 -11 -7 -30
-6 -54 0 -45 13 -60 13 -91 1z"/>
<path d="M2306 777 c6 -18 2 -19 -111 -38 -69 -11 -233 -13 -267 -3 -10 3 -18
12 -18 20 0 19 -36 18 -44 -1 -3 -8 -16 -15 -28 -15 -22 1 -22 1 -5 14 10 8
15 16 10 19 -16 10 -253 7 -253 -3 0 -6 20 -10 44 -10 25 0 48 -4 51 -10 4 -6
-8 -10 -29 -10 -59 0 -58 -41 1 -46 16 -1 40 -5 54 -9 16 -4 30 -2 33 4 4 6
18 11 31 11 13 0 26 4 30 9 6 11 40 9 68 -4 11 -4 110 -4 220 0 111 4 221 8
244 9 43 1 65 12 47 24 -6 4 -13 15 -17 25 -3 9 -13 17 -21 17 -8 0 -22 3 -30
6 -12 5 -15 2 -10 -9z"/>
<path d="M2470 669 c-10 -6 -127 -9 -325 -8 -179 1 -352 -3 -410 -9 -55 -6
-139 -12 -187 -12 -52 0 -88 -4 -88 -10 0 -11 65 -14 213 -10 66 1 97 -1 97
-9 0 -7 -32 -11 -93 -11 -51 0 -97 -4 -102 -9 -14 -12 -84 -21 -90 -11 -3 5
-19 11 -35 15 -32 7 -41 25 -13 25 12 0 14 3 7 10 -13 13 -51 15 -197 12 -82
-1 -108 -5 -104 -14 3 -10 36 -12 135 -9 73 1 132 -1 132 -5 0 -5 -3 -19 -6
-31 -5 -19 -9 -21 -26 -12 -14 8 -23 8 -31 0 -8 -8 -6 -11 5 -11 9 0 24 -7 32
-16 14 -13 46 -15 208 -14 106 1 238 3 293 5 55 1 139 4 187 4 48 1 90 6 93
12 4 5 1 9 -4 9 -6 0 -11 5 -11 11 0 6 12 9 28 7 15 -2 26 -8 25 -15 -4 -17
33 -26 54 -14 16 9 16 10 -4 11 -13 0 -23 5 -23 10 0 6 11 10 25 10 20 0 25 5
25 25 0 24 3 25 58 27 159 5 172 7 172 33 0 17 -18 19 -40 4z"/>
<path d="M2879 507 c9 -22 7 -27 -9 -32 -12 -4 -29 1 -42 11 -16 11 -17 15 -5
11 10 -4 17 -1 17 6 0 10 -17 11 -84 2 -93 -11 -120 -26 -111 -62 7 -30 -22
-32 -33 -2 -5 13 -29 30 -59 43 -45 19 -62 21 -145 15 -51 -4 -105 -5 -120 -2
-17 3 -28 1 -28 -6 0 -6 10 -11 22 -11 20 0 20 -1 5 -18 -10 -10 -14 -21 -11
-25 4 -3 -5 -12 -20 -18 -21 -10 -29 -10 -39 1 -10 10 -9 12 6 7 12 -5 17 -1
17 13 0 14 -7 20 -22 21 -48 3 -53 4 -53 19 0 11 -14 16 -52 18 -32 2 -53 -1
-53 -7 0 -6 7 -11 15 -11 21 0 19 -13 -6 -28 -16 -10 -24 -11 -35 -1 -16 13
-177 16 -214 4 -11 -3 -33 1 -49 9 -34 18 -71 21 -71 6 0 -5 5 -10 12 -10 8 0
6 -6 -4 -16 -13 -14 -24 -15 -55 -8 -24 6 -138 5 -308 -3 -323 -16 -507 -21
-925 -28 -173 -3 -339 -8 -367 -11 l-53 -5 0 -45 0 -44 162 0 c100 0 174 5
194 12 26 9 38 9 56 -1 25 -13 273 -12 295 2 6 4 64 4 129 1 182 -8 193 -8
284 9 58 11 117 15 185 11 620 -30 1025 -40 1025 -24 0 5 7 10 15 10 8 0 15
-4 15 -10 0 -7 289 -10 846 -10 467 0 843 4 840 9 -7 10 -91 23 -167 25 -31 1
-63 7 -70 13 -8 6 -61 16 -119 23 -58 6 -134 15 -170 21 -36 5 -116 11 -179
13 -67 1 -116 7 -118 13 -2 6 -22 7 -56 2 -29 -5 -94 -4 -147 2 -52 5 -143 10
-202 11 -84 0 -108 3 -108 14 0 9 12 13 38 12 113 -3 212 4 223 18 18 21 3 43
-28 42 -15 0 -38 3 -51 7 -21 7 -22 6 -13 -18z"/>
<path d="M7863 359 c9 -5 17 -21 17 -34 0 -30 5 -31 33 -4 l22 20 3 -20 c3
-20 9 -21 167 -21 129 0 164 3 168 14 4 10 -10 17 -54 25 -33 7 -65 9 -72 4
-6 -4 -35 -10 -64 -13 -44 -5 -52 -3 -56 11 -4 15 -14 17 -75 13 -43 -3 -73
-1 -77 5 -3 6 -12 11 -18 11 -7 0 -4 -5 6 -11z"/>
</g>
</svg>
