<?xml version="1.0" standalone="no"?>
<!DOCTYPE svg PUBLIC "-//W3C//DTD SVG 20010904//EN"
 "http://www.w3.org/TR/2001/REC-SVG-20010904/DTD/svg10.dtd">
<svg version="1.0" xmlns="http://www.w3.org/2000/svg"
 width="1029.000000pt" height="604.000000pt" viewBox="0 0 1029.000000 604.000000"
 preserveAspectRatio="xMidYMid meet">
<metadata>
Created by potrace 1.16, written by Peter Selinger 2001-2019
</metadata>
<g transform="translate(0.000000,604.000000) scale(0.100000,-0.100000)"
fill="#000000" stroke="none">
<path d="M0 6020 c0 -20 7 -20 5145 -20 5138 0 5145 0 5145 20 0 20 -7 20
-5145 20 -5138 0 -5145 0 -5145 -20z"/>
<path d="M570 5905 c0 -44 1 -45 33 -45 18 0 38 5 45 12 8 8 12 9 12 1 0 -8
36 -11 110 -12 109 0 110 0 110 24 0 13 5 27 10 30 6 4 10 -7 10 -24 l0 -31
130 1 130 0 0 25 c0 13 5 24 10 24 6 0 10 -11 10 -25 0 -37 20 -30 21 8 0 17
3 26 6 20 7 -19 40 -16 47 4 8 20 -13 36 -34 26 -8 -3 -48 -9 -88 -12 -54 -5
-72 -3 -72 7 0 14 -57 17 -62 3 -3 -9 -44 -14 -111 -12 -23 1 -36 5 -32 11 3
6 -1 10 -9 10 -9 0 -16 -6 -16 -12 0 -9 -4 -8 -10 2 -8 12 -12 12 -18 2 -11
-16 -140 -18 -155 -3 -6 6 -26 11 -44 11 -32 0 -33 -1 -33 -45z"/>
<path d="M3003 5765 c-8 -13 -157 -15 -1223 -17 l-1215 -3 0 -150 0 -150 1218
-3 1217 -2 0 -215 0 -215 -896 0 c-599 0 -893 3 -889 10 10 16 7 272 -3 282
-5 5 -150 9 -322 9 -172 0 -317 -4 -322 -9 -5 -5 -9 -70 -9 -143 0 -74 1
-1037 1 -2141 l0 -2008 3200 0 3200 0 0 1774 c0 1765 0 1774 20 1779 20 5 20
14 20 441 l0 436 1218 2 1217 3 0 150 0 150 -1215 3 c-1066 2 -1215 4 -1223
17 -7 13 -242 15 -1997 15 -1755 0 -1990 -2 -1997 -15z m3985 -597 l2 -598
-1990 0 -1990 0 0 593 c0 327 3 597 7 600 3 4 898 6 1987 5 l1981 -3 3 -597z
m-3988 427 l0 -145 -1203 0 c-922 0 -1206 3 -1215 12 -17 17 -17 249 0 266 9
9 293 12 1215 12 l1203 0 0 -145z m6418 133 c17 -17 17 -249 0 -266 -9 -9
-293 -12 -1215 -12 l-1203 0 0 145 0 145 1203 0 c922 0 1206 -3 1215 -12z
m-8580 -810 c8 -8 12 -45 12 -100 l0 -88 -105 0 -105 0 0 90 c0 74 3 91 18 99
24 15 165 14 180 -1z m12 -291 c0 -59 -4 -97 -12 -105 -7 -7 -43 -12 -93 -12
-50 0 -86 5 -93 12 -8 8 -12 46 -12 105 l0 93 105 0 105 0 0 -93z"/>
<path d="M670 5608 c0 -49 12 -61 55 -56 31 4 36 2 32 -14 -4 -15 1 -18 29
-18 24 0 34 5 34 15 0 12 14 15 64 15 l65 0 4 33 4 32 1 -32 c3 -47 32 -45 32
2 0 34 -1 35 -41 35 -24 0 -38 4 -34 10 3 6 -1 10 -9 10 -9 0 -15 -5 -13 -11
1 -7 -13 -12 -38 -12 -25 0 -39 5 -37 12 1 7 -15 11 -42 11 -44 0 -45 0 -48
-37 -2 -21 -7 -38 -13 -38 -5 0 -11 17 -13 38 -4 48 -32 52 -32 5z"/>
</g>
</svg>
