<?xml version="1.0" standalone="no"?>
<!DOCTYPE svg PUBLIC "-//W3C//DTD SVG 20010904//EN"
 "http://www.w3.org/TR/2001/REC-SVG-20010904/DTD/svg10.dtd">
<svg version="1.0" xmlns="http://www.w3.org/2000/svg"
 width="310.000000pt" height="163.000000pt" viewBox="0 0 310.000000 163.000000"
 preserveAspectRatio="xMidYMid meet">
<metadata>
Created by potrace 1.16, written by Peter Selinger 2001-2019
</metadata>
<g transform="translate(0.000000,163.000000) scale(0.100000,-0.100000)"
fill="#000000" stroke="none">
<path d="M2873 850 c-121 -49 -173 -74 -173 -83 0 -7 -5 -29 -11 -49 l-10 -38
-435 0 -434 0 5 -37 c3 -21 14 -103 25 -181 10 -79 21 -146 23 -148 3 -3 164
-19 358 -36 195 -17 355 -32 356 -33 1 0 0 -18 -4 -38 l-6 -37 -381 -2 c-353
-3 -381 -4 -384 -21 -3 -16 21 -17 392 -17 217 0 397 3 399 8 3 4 36 143 73
309 l69 303 90 38 c51 21 90 44 90 52 0 17 -14 21 -42 10z"/>
<path d="M335 567 c-3 -7 -4 -100 -3 -207 l3 -195 309 -3 c222 -2 312 1 323 9
11 10 13 50 11 208 l-3 196 -318 3 c-252 2 -319 0 -322 -11z m604 -31 c8 -9
11 -64 9 -172 l-3 -159 -290 0 -290 0 -3 159 c-2 108 1 163 9 172 17 21 551
21 568 0z"/>
<path d="M400 505 c0 -13 35 -15 255 -15 220 0 255 2 255 15 0 13 -35 15 -255
15 -220 0 -255 -2 -255 -15z"/>
<path d="M282 107 c-23 -23 -42 -46 -42 -50 0 -4 187 -7 416 -7 l416 0 -44 50
-43 49 -330 1 -331 0 -42 -43z"/>
<path d="M240 25 c11 -13 66 -15 418 -13 313 2 406 6 410 16 3 9 -85 12 -418
12 -376 0 -421 -2 -410 -15z"/>
</g>
</svg>
