<?xml version="1.0" standalone="no"?>
<!DOCTYPE svg PUBLIC "-//W3C//DTD SVG 20010904//EN"
 "http://www.w3.org/TR/2001/REC-SVG-20010904/DTD/svg10.dtd">
<svg version="1.0" xmlns="http://www.w3.org/2000/svg"
 width="1019.000000pt" height="621.000000pt" viewBox="0 0 1019.000000 621.000000"
 preserveAspectRatio="xMidYMid meet">
<metadata>
Created by potrace 1.16, written by Peter Selinger 2001-2019
</metadata>
<g transform="translate(0.000000,621.000000) scale(0.100000,-0.100000)"
fill="#000000" stroke="none">
<path d="M2548 6203 c1405 -2 3700 -2 5100 0 1401 1 252 2 -2553 2 -2805 0
-3951 -1 -2547 -2z"/>
<path d="M4680 5410 c0 -143 1 -150 20 -150 18 0 20 7 20 78 0 92 12 115 55
110 l30 -3 3 -92 c2 -85 4 -93 22 -93 18 0 20 7 20 88 0 103 -14 132 -61 132
-17 0 -39 -5 -50 -10 -18 -10 -19 -7 -19 40 0 43 -3 50 -20 50 -19 0 -20 -7
-20 -150z"/>
<path d="M2123 5528 c2 -7 12 -40 21 -73 56 -195 56 -195 80 -195 21 0 26 10
52 110 15 60 30 108 32 106 2 -2 16 -50 31 -107 25 -93 30 -104 52 -107 23 -3
26 4 57 115 49 176 47 163 25 163 -16 0 -24 -18 -48 -110 -16 -60 -32 -110
-35 -110 -3 0 -18 50 -34 111 -26 97 -31 110 -49 107 -17 -2 -26 -22 -51 -118
l-30 -114 -17 59 c-10 33 -25 86 -34 118 -13 45 -21 57 -37 57 -12 0 -18 -5
-15 -12z"/>
<path d="M4420 5525 c0 -11 12 -15 45 -15 l45 0 0 -125 c0 -118 1 -125 20
-125 19 0 20 7 20 125 l0 125 45 0 c33 0 45 4 45 15 0 12 -19 15 -110 15 -91
0 -110 -3 -110 -15z"/>
<path d="M5240 5401 c0 -119 2 -141 15 -141 12 0 15 20 16 113 l1 112 18 -40
c9 -22 30 -73 45 -112 15 -40 33 -73 40 -73 7 0 26 33 41 73 54 145 52 144 53
30 1 -96 2 -103 21 -103 19 0 20 7 20 141 l0 140 -26 -3 c-24 -3 -31 -14 -67
-115 l-41 -112 -41 112 c-38 102 -44 112 -68 115 l-27 3 0 -140z"/>
<path d="M6780 5400 c0 -118 2 -140 15 -140 12 0 15 13 15 55 l0 55 55 0 c65
0 99 14 114 47 36 79 -9 123 -129 123 l-70 0 0 -140z"/>
<path d="M2541 5463 c-28 -23 -41 -82 -30 -130 10 -48 41 -73 89 -73 47 0 102
38 76 52 -11 6 -21 4 -32 -6 -19 -19 -68 -21 -82 -3 -5 6 -13 22 -16 35 -7 21
-6 22 70 22 l77 0 -6 42 c-4 27 -14 49 -27 60 -28 23 -91 23 -119 1z"/>
<path d="M2862 5473 c-38 -15 -55 -119 -27 -172 16 -32 33 -41 76 -41 29 0 79
37 79 60 0 18 -35 11 -48 -10 -16 -26 -58 -26 -72 -1 -14 27 -13 114 2 129 19
19 56 14 70 -8 7 -11 18 -20 25 -20 24 0 23 20 -1 45 -24 24 -70 32 -104 18z"/>
<path d="M3062 5473 c-55 -22 -53 -185 3 -207 29 -11 80 -6 102 9 50 35 54
147 6 185 -24 19 -80 26 -111 13z m92 -45 c36 -51 9 -138 -43 -138 -15 0 -32
5 -39 12 -16 16 -16 120 0 136 20 20 65 14 82 -10z"/>
<path d="M3250 5370 c0 -103 1 -110 20 -110 18 0 20 7 20 84 0 91 10 110 52
104 22 -3 23 -8 26 -95 2 -85 4 -93 22 -93 18 0 20 7 20 78 0 88 13 116 51
110 23 -3 24 -6 27 -95 2 -85 4 -93 22 -93 18 0 20 7 20 93 0 78 -3 97 -18
110 -23 21 -61 22 -89 2 -18 -13 -22 -13 -33 0 -16 19 -60 19 -88 -1 -20 -14
-22 -14 -22 0 0 9 -7 16 -15 16 -12 0 -15 -19 -15 -110z"/>
<path d="M3605 5456 c-45 -45 -41 -147 8 -181 30 -21 90 -19 118 4 19 16 21
22 12 32 -10 10 -16 9 -31 -4 -26 -24 -68 -21 -86 5 -29 42 -22 48 59 48 l75
0 0 31 c0 74 -102 117 -155 65z"/>
<path d="M4129 5451 c-25 -25 -29 -37 -29 -81 0 -44 4 -56 29 -81 38 -37 88
-39 128 -5 25 22 28 31 28 86 0 55 -3 64 -28 86 -40 34 -90 32 -128 -5z m111
-20 c16 -30 12 -107 -6 -125 -22 -23 -71 -20 -84 3 -5 11 -10 38 -10 61 0 60
14 80 55 80 24 0 38 -6 45 -19z"/>
<path d="M4925 5456 c-45 -45 -41 -147 8 -181 30 -21 90 -19 118 4 19 16 21
22 12 32 -10 10 -16 9 -31 -4 -26 -24 -68 -21 -86 5 -29 42 -22 48 59 48 l75
0 0 31 c0 74 -102 117 -155 65z"/>
<path d="M5588 5450 c-28 -29 -30 -35 -26 -87 4 -46 10 -61 33 -81 24 -20 36
-23 74 -19 27 3 50 12 58 23 19 26 -1 43 -25 21 -37 -34 -102 -12 -102 34 0
17 8 19 76 19 l77 0 -6 38 c-13 81 -101 109 -159 52z"/>
<path d="M5815 5456 c-45 -45 -41 -147 8 -181 30 -21 90 -19 118 4 19 16 21
22 12 32 -10 10 -16 9 -31 -4 -26 -24 -68 -21 -86 5 -29 42 -22 48 59 48 l75
0 0 31 c0 74 -102 117 -155 65z"/>
<path d="M6214 5464 c3 -9 6 -58 6 -110 0 -77 3 -94 15 -94 12 0 15 15 15 73
0 81 16 117 54 117 38 0 46 -19 46 -107 0 -76 2 -83 20 -83 18 0 20 7 20 68 0
74 -13 131 -32 144 -21 13 -62 9 -86 -8 -20 -14 -22 -14 -22 0 0 10 -9 16 -21
16 -15 0 -19 -4 -15 -16z"/>
<path d="M6455 5455 c-21 -20 -25 -34 -25 -83 0 -96 55 -141 118 -96 21 14 22
14 22 -6 0 -54 -51 -80 -89 -46 -12 11 -21 12 -31 5 -23 -15 24 -49 67 -49 77
0 93 34 93 191 0 102 -1 109 -20 109 -12 0 -20 -7 -20 -17 0 -15 -1 -15 -18 0
-27 24 -69 21 -97 -8z"/>
<path d="M7152 5464 c-24 -17 -30 -44 -8 -44 7 0 19 7 26 16 20 24 74 15 78
-13 3 -18 -1 -23 -20 -23 -13 0 -40 -5 -60 -11 -39 -10 -56 -39 -49 -84 6 -46
70 -60 114 -25 25 20 25 20 30 0 6 -24 57 -29 57 -5 0 8 -7 15 -15 15 -12 0
-15 15 -15 75 0 62 -4 79 -20 95 -24 24 -86 27 -118 4z"/>
<path d="M7350 5370 c0 -91 3 -110 15 -110 12 0 15 14 15 68 0 82 15 116 54
120 16 2 32 -2 37 -10 5 -7 9 -50 9 -95 0 -78 1 -83 21 -83 20 0 21 4 17 96
-2 81 -6 98 -22 110 -26 18 -66 18 -94 -2 -20 -14 -22 -14 -22 0 0 9 -7 16
-15 16 -12 0 -15 -19 -15 -110z"/>
<path d="M7570 5370 c0 -103 1 -110 20 -110 18 0 20 7 20 78 0 92 12 115 55
110 l30 -3 3 -92 c2 -85 4 -93 22 -93 18 0 20 7 20 88 0 104 -13 132 -63 132
-18 0 -43 -7 -55 -16 -20 -14 -22 -14 -22 0 0 9 -7 16 -15 16 -12 0 -15 -19
-15 -110z"/>
<path d="M7815 5456 c-45 -45 -41 -147 8 -181 30 -21 90 -19 118 4 19 16 21
22 12 32 -10 10 -16 9 -31 -4 -26 -24 -68 -21 -86 5 -29 42 -22 48 59 48 l75
0 0 31 c0 74 -102 117 -155 65z"/>
<path d="M9883 4693 c-28 -32 -28 -34 -1 -68 21 -27 21 -28 3 -41 -10 -8 -33
-14 -50 -14 -42 0 -51 -11 -24 -31 28 -21 20 -44 -22 -67 -22 -12 -42 -39 -70
-97 -21 -44 -43 -87 -48 -95 -16 -28 -30 -105 -20 -114 12 -13 12 -53 -1 -61
-17 -10 -38 -68 -45 -120 -9 -73 24 -134 83 -153 26 -8 53 -27 70 -48 31 -39
40 -41 58 -17 7 10 16 14 21 10 7 -8 7 -37 0 -187 l-2 -44 40 -7 c22 -4 58
-14 80 -23 40 -16 50 -29 99 -135 6 -14 17 -26 24 -29 9 -3 12 138 12 682 l0
686 -92 -1 c-87 0 -94 -2 -115 -26z"/>
<path d="M2110 4538 l0 -113 55 -2 c46 -2 56 1 70 19 20 29 19 97 -1 127 -14
20 -23 22 -55 18 -39 -5 -39 -5 -39 29 0 24 -5 34 -15 34 -12 0 -15 -19 -15
-112z"/>
<path d="M1301 4618 c-16 -40 -49 -122 -65 -160 -15 -34 -15 -38 -1 -38 9 0
23 16 31 35 14 33 17 35 63 35 48 0 50 -1 61 -35 7 -20 18 -35 27 -35 10 0 13
6 9 18 -55 148 -81 202 -98 202 -10 0 -22 -10 -27 -22z"/>
<path d="M2630 4531 c0 -92 3 -111 15 -111 12 0 15 16 16 83 l0 82 32 -82 c17
-46 37 -83 44 -83 6 0 26 39 45 88 l33 87 3 -87 c4 -128 22 -109 22 22 0 98
-2 110 -18 110 -12 0 -24 -18 -39 -57 -12 -32 -27 -71 -34 -88 -11 -30 -11
-30 -44 55 -25 65 -38 86 -54 88 -20 3 -21 -1 -21 -107z"/>
<path d="M1626 4574 c-20 -20 -20 -34 -1 -34 8 0 15 4 15 9 0 13 34 23 54 15
9 -3 16 -15 16 -25 0 -15 -7 -19 -38 -19 -48 0 -77 -27 -68 -64 8 -31 47 -43
84 -26 18 8 28 8 30 1 4 -13 39 -15 46 -2 3 5 -1 11 -9 15 -11 4 -15 21 -15
60 0 65 -16 86 -65 86 -18 0 -41 -7 -49 -16z"/>
<path d="M1946 4574 c-20 -20 -20 -34 -1 -34 8 0 15 4 15 9 0 13 34 23 54 15
9 -3 16 -15 16 -25 0 -15 -7 -19 -38 -19 -48 0 -77 -27 -68 -64 8 -31 47 -43
84 -26 18 8 28 8 30 1 4 -13 39 -15 46 -2 3 5 -1 11 -9 15 -11 4 -15 21 -15
60 0 65 -16 86 -65 86 -18 0 -41 -7 -49 -16z"/>
<path d="M2372 4567 c-50 -53 -15 -147 54 -147 38 0 73 24 58 40 -8 8 -14 7
-24 -5 -16 -19 -44 -19 -64 1 -32 32 -20 44 44 44 52 0 60 3 60 19 0 10 -9 30
-21 45 -27 34 -77 36 -107 3z"/>
<path d="M2905 4565 c-73 -72 26 -191 105 -127 20 16 21 20 7 25 -8 3 -21 -1
-27 -9 -18 -21 -47 -17 -64 8 -9 12 -16 26 -16 30 0 5 27 8 60 8 57 0 60 1 60
25 0 61 -80 86 -125 40z"/>
<path d="M3082 4567 c-50 -53 -15 -147 54 -147 38 0 73 24 58 40 -8 8 -14 7
-24 -5 -16 -19 -44 -19 -64 1 -32 32 -20 44 44 44 52 0 60 3 60 19 0 10 -9 30
-21 45 -27 34 -77 36 -107 3z"/>
<path d="M3597 4572 c-24 -26 -23 -113 1 -135 21 -19 45 -21 73 -7 16 9 19 7
19 -13 0 -43 -44 -63 -70 -32 -16 19 -30 19 -30 0 0 -36 78 -47 110 -15 17 17
20 33 20 120 0 82 -3 100 -15 100 -8 0 -15 -5 -15 -12 0 -9 -3 -9 -12 0 -18
18 -63 14 -81 -6z"/>
<path d="M5930 4345 c-7 -9 -24 -14 -39 -13 -40 5 -40 -30 0 -63 l32 -26 49
17 c64 22 82 41 74 74 -6 24 -11 26 -55 26 -31 0 -53 -5 -61 -15z"/>
<path d="M7901 4216 c-14 -14 -35 -26 -48 -26 -19 0 -23 -5 -23 -30 0 -17 -9
-38 -23 -52 -13 -13 -39 -43 -58 -68 -31 -41 -34 -50 -38 -128 -3 -85 18 -186
54 -255 8 -16 15 -37 15 -47 0 -10 9 -20 21 -23 18 -5 20 -11 14 -36 -7 -32 2
-40 22 -20 8 8 15 4 26 -17 15 -27 15 -23 12 71 -3 76 -9 109 -24 140 -26 50
-28 113 -3 121 9 3 31 12 47 19 17 8 62 17 101 19 40 3 91 13 114 22 49 20 64
9 54 -39 -4 -21 0 -35 16 -52 l21 -23 -35 -55 c-33 -52 -64 -74 -93 -69 -19 4
-83 -26 -109 -50 -27 -26 -32 -50 -8 -41 13 5 15 2 9 -16 -6 -20 -4 -21 29
-18 20 2 36 0 36 -4 0 -32 72 28 76 62 1 13 3 33 3 44 1 19 1 19 20 0 24 -25
71 -140 71 -174 0 -38 -14 -54 -38 -47 -11 4 -23 2 -27 -4 -9 -15 14 -40 50
-56 25 -11 27 -14 12 -19 -11 -5 -25 -1 -36 9 -10 9 -25 16 -34 16 -10 0 -17
8 -17 19 0 11 -4 23 -10 26 -5 3 -10 15 -10 25 0 34 -28 11 -46 -37 -14 -37
-15 -51 -6 -75 10 -27 8 -34 -20 -69 -18 -22 -46 -50 -64 -64 -30 -23 -166
-75 -197 -75 -22 0 -46 -43 -58 -102 -6 -29 -20 -90 -31 -136 -19 -83 -31
-142 -48 -237 -16 -92 -62 -226 -99 -291 -10 -16 -21 -47 -25 -67 -4 -20 -12
-42 -19 -49 -21 -21 -77 -139 -77 -162 0 -12 9 -28 20 -36 27 -20 25 -27 -10
-35 -38 -8 -110 -78 -86 -83 9 -2 29 6 45 17 16 12 39 21 50 21 40 0 23 -37
-44 -95 -36 -32 -65 -61 -65 -66 0 -20 28 -6 70 37 47 47 84 64 102 46 8 -8 6
-18 -6 -36 -16 -25 -16 -26 6 -23 34 3 26 -36 -23 -105 -22 -32 -38 -58 -35
-58 22 0 54 28 71 62 11 23 26 44 34 46 20 7 8 -78 -13 -94 -9 -6 -16 -16 -16
-23 0 -6 -6 -11 -13 -11 -8 0 -22 -9 -32 -20 -18 -20 -17 -20 13 -20 20 0 44
12 72 35 25 21 58 38 81 41 71 12 73 17 63 140 -9 104 -10 108 -34 114 -39 9
-32 35 8 33 30 -1 37 4 63 45 16 25 29 53 29 61 0 9 23 56 50 105 28 49 50 92
50 96 0 4 7 13 15 20 10 8 15 9 15 1 0 -6 21 -55 48 -108 l47 -98 -3 -171 -3
-171 28 -10 c39 -14 89 -29 148 -43 28 -6 59 -16 70 -20 36 -16 162 -50 183
-50 17 0 22 8 27 43 5 35 0 57 -29 127 -20 46 -36 98 -36 115 1 33 -4 42 64
-138 14 -37 40 -95 58 -130 29 -54 37 -62 65 -65 28 -3 32 0 35 25 3 26 6 28
42 27 l39 -2 -6 67 c-7 83 23 255 56 318 39 75 77 79 77 8 0 -24 -4 -47 -10
-50 -5 -3 -10 -15 -10 -27 0 -11 -9 -31 -20 -45 -11 -14 -20 -32 -20 -39 0
-18 47 -19 53 -1 3 8 20 4 60 -17 64 -33 97 -60 97 -81 0 -22 -11 -45 -22 -45
-6 0 -8 7 -5 15 4 8 2 17 -3 20 -17 11 -30 -34 -25 -87 7 -63 -1 -78 -46 -87
-27 -5 -35 -12 -37 -33 -2 -19 -11 -28 -35 -35 -22 -6 -33 -16 -35 -32 -6 -38
10 -44 72 -26 79 23 110 19 361 -54 39 -11 73 -16 78 -12 7 7 -22 119 -67 256
-31 91 -26 119 39 230 47 81 53 98 58 164 4 48 1 87 -7 115 -36 111 -40 137
-28 200 16 82 35 224 36 261 1 26 -3 30 -24 30 -22 0 -26 -6 -33 -45 -16 -84
-18 -92 -24 -86 -12 12 -62 181 -73 245 -5 36 -24 104 -41 151 -17 47 -41 117
-54 155 -23 69 -60 165 -85 216 -8 17 -25 30 -49 37 -81 23 -119 32 -141 32
-23 0 -70 13 -120 32 -14 6 -49 16 -78 24 -30 8 -72 27 -95 43 -93 65 -104 86
-127 229 -7 39 -16 72 -21 72 -6 0 -7 5 -3 11 3 6 1 23 -6 37 -30 64 -33 72
-27 79 4 3 7 -1 7 -10 0 -9 3 -17 8 -17 4 0 17 -26 29 -57 12 -32 27 -71 34
-88 l12 -30 7 25 c14 43 11 88 -9 147 -10 32 -30 96 -45 143 -35 118 -71 170
-145 214 -55 32 -72 36 -154 42 -90 6 -93 6 -116 -20z m460 -1002 c-6 -23 -14
-170 -17 -325 -7 -310 -17 -394 -27 -234 -3 55 -16 136 -27 180 -13 52 -18 93
-14 118 5 34 2 41 -32 75 l-37 37 -10 -23 c-8 -17 -7 -41 2 -83 6 -33 10 -63
7 -67 -11 -18 -21 -310 -18 -539 2 -139 0 -258 -4 -264 -13 -22 -31 44 -43
161 -7 63 -17 151 -23 195 -6 44 -12 139 -13 210 -1 72 -7 150 -14 174 -8 29
-10 71 -6 126 6 73 4 92 -19 163 -24 75 -32 122 -21 122 2 0 15 -10 29 -22 59
-54 95 -78 115 -78 14 0 19 -5 15 -15 -4 -8 -3 -15 0 -15 16 0 128 83 132 98
3 9 10 25 15 34 5 10 10 28 10 40 2 23 2 23 6 -1 3 -13 0 -43 -6 -67z"/>
<path d="M5270 3833 l0 -383 35 0 c40 0 51 15 61 81 8 55 42 109 69 109 33 0
54 46 48 108 l-6 52 55 0 c59 0 85 -14 67 -37 -7 -7 -20 -13 -30 -13 -18 0
-52 -39 -48 -56 4 -18 -14 -46 -35 -54 -19 -8 -19 -9 7 -9 32 -1 33 -5 7 -38
-12 -15 -18 -34 -15 -44 4 -10 1 -28 -5 -39 -15 -28 5 -68 45 -90 22 -12 31
-25 33 -48 2 -18 7 -32 13 -32 5 0 9 -7 9 -15 0 -10 -6 -12 -17 -8 -15 6 -16
4 -5 -9 11 -13 9 -22 -13 -53 -36 -54 -29 -153 14 -199 12 -12 21 -30 21 -39
0 -13 9 -17 34 -17 41 0 49 15 40 81 -4 33 -2 54 6 64 9 10 9 15 1 15 -6 0
-11 7 -11 15 0 8 -9 15 -19 15 -21 0 -36 15 -23 24 4 2 14 1 22 -4 11 -7 22 2
43 36 27 45 28 70 1 60 -8 -3 -14 -4 -14 -2 0 12 45 86 52 86 4 0 8 7 8 15 0
8 -4 15 -9 15 -5 0 -12 31 -16 70 -5 54 -3 76 9 101 20 40 20 50 2 43 -8 -3
-19 3 -25 15 -6 11 -17 18 -24 15 -9 -3 -11 8 -9 40 2 25 -2 55 -11 71 -13 25
-12 34 6 86 12 36 26 59 34 59 11 0 13 5 8 18 -5 9 -9 36 -10 59 -1 36 -8 49
-51 91 -27 27 -58 54 -70 60 -52 27 -205 71 -243 69 l-41 -1 0 -383z"/>
<path d="M6574 4023 c4 -15 8 -35 9 -43 17 -90 20 -94 100 -163 33 -28 38 -39
41 -82 2 -27 7 -67 11 -87 7 -37 7 -38 -21 -38 -36 0 -61 -14 -44 -25 8 -5 0
-18 -25 -41 -21 -19 -41 -34 -46 -34 -5 0 -6 55 -3 123 5 131 8 161 20 192 7
18 6 18 -9 6 -15 -12 -17 -11 -17 7 0 12 -9 23 -20 27 -21 7 -40 59 -40 112 0
77 -66 46 -94 -45 -7 -20 -5 -21 19 -12 21 8 29 6 46 -11 12 -12 18 -27 15
-36 -4 -9 -1 -22 5 -29 9 -11 8 -19 -5 -32 -9 -10 -16 -26 -16 -35 0 -19 -20
-34 -20 -15 -1 7 -7 0 -14 -17 l-12 -30 -9 35 c-8 34 -8 33 -16 -28 -4 -34
-11 -72 -15 -84 -6 -19 -7 -19 -16 -4 -5 9 -8 24 -7 34 1 9 0 24 -1 32 -4 23
-17 -39 -20 -90 -2 -36 -3 -40 -9 -20 -17 60 -23 -18 -24 -305 -1 -168 -4
-305 -9 -305 -4 0 -9 24 -11 53 -3 43 -4 40 -5 -23 -3 -116 -11 -148 -36 -152
-16 -2 -22 -11 -24 -36 -3 -27 -7 -32 -23 -27 -16 5 -19 1 -19 -29 0 -22 -7
-42 -19 -53 -10 -10 -22 -38 -26 -63 -8 -50 -20 -63 -47 -49 -16 9 -17 7 -7
-14 9 -19 7 -31 -5 -55 -9 -17 -16 -49 -16 -71 0 -33 5 -44 31 -63 17 -13 41
-22 55 -20 13 2 24 -1 24 -7 0 -6 -9 -11 -20 -11 -23 0 -70 -28 -70 -41 0 -9
81 -49 100 -49 15 0 40 -25 40 -40 0 -8 -7 -9 -17 -5 -10 4 -45 10 -78 13
l-60 4 24 -21 c13 -11 37 -21 53 -21 37 0 35 -17 -8 -60 -19 -19 -33 -41 -32
-49 6 -29 27 -21 54 18 26 40 56 53 69 30 4 -5 -11 -27 -34 -48 -23 -21 -41
-42 -41 -46 0 -5 -7 -17 -17 -27 -13 -15 -14 -22 -4 -45 l12 -26 35 49 c35 49
103 109 113 98 3 -3 1 -8 -5 -12 -6 -4 -14 -18 -18 -32 -6 -22 -2 -20 29 14
26 30 35 48 35 75 0 20 7 50 16 66 48 90 104 205 115 238 15 41 25 47 34 17 9
-28 22 -25 28 8 3 15 15 63 26 107 11 44 23 96 26 116 8 55 45 90 122 116 37
13 70 24 73 25 3 1 18 -2 33 -7 24 -6 33 -3 53 19 40 43 59 34 24 -11 -19 -24
-19 -27 -4 -45 10 -10 28 -18 41 -18 24 0 31 -18 13 -36 -6 -6 -33 -9 -60 -6
-33 3 -50 1 -50 -7 0 -6 8 -11 17 -11 9 0 32 -5 50 -12 42 -15 46 -48 6 -48
-14 0 -34 -6 -42 -13 -14 -12 -43 -22 -118 -42 -23 -6 -68 -89 -57 -106 4 -6
18 1 35 17 20 19 29 23 29 13 0 -18 -35 -49 -55 -49 -8 0 -19 -17 -25 -40 -11
-40 -35 -56 -82 -52 -10 0 -18 -3 -18 -7 0 -15 61 -92 78 -98 9 -3 25 -13 34
-20 22 -19 34 -11 41 27 6 27 10 30 45 30 l39 0 -8 -52 c-18 -119 -35 -185
-55 -211 -21 -26 -44 -36 -44 -18 0 5 -9 7 -20 4 -23 -6 -27 16 -8 47 24 37
-24 77 -58 49 -9 -7 -13 -20 -11 -30 3 -11 -2 -19 -14 -22 -13 -3 -19 -14 -19
-31 0 -14 -4 -26 -10 -26 -5 0 -10 -16 -10 -35 0 -33 2 -35 35 -35 25 0 35 4
35 15 0 12 6 11 31 -7 29 -21 31 -26 25 -68 -5 -46 -12 -79 -40 -185 -58 -228
-65 -284 -35 -277 18 5 152 19 284 32 55 5 114 15 132 22 l31 13 -41 83 -41
82 -76 0 c-52 1 -70 4 -59 10 20 12 152 16 195 6 35 -8 84 7 84 26 0 7 13 26
29 43 62 65 72 96 74 236 1 91 -2 132 -10 140 -7 7 -13 22 -13 33 -1 12 -7 32
-14 45 -13 24 -14 24 -24 -20 -5 -24 -13 -52 -17 -61 -5 -13 -2 -18 9 -18 13
0 15 -8 10 -44 -4 -25 -1 -59 5 -77 8 -25 8 -39 -1 -61 -7 -15 -16 -28 -21
-28 -4 0 -3 -9 3 -21 9 -15 8 -24 -1 -35 -15 -18 -29 -18 -29 1 0 8 -4 15 -10
15 -5 0 -10 -7 -10 -15 0 -20 -23 -19 -42 3 -21 23 -68 118 -68 136 0 8 6 17
13 19 7 4 6 6 -4 6 -13 1 -18 16 -23 71 -12 137 -16 215 -10 200 13 -31 59
-70 82 -70 13 0 30 -7 39 -15 17 -18 33 -16 43 6 4 8 15 30 26 49 14 27 18 58
18 142 1 72 5 111 14 119 6 7 12 24 12 37 0 21 -2 23 -16 11 -9 -7 -20 -23
-25 -36 -4 -12 -23 -29 -41 -36 -18 -8 -39 -21 -46 -30 -14 -16 -4 -20 77 -30
27 -4 22 -28 -13 -63 -29 -29 -42 -35 -68 -32 -30 3 -34 8 -47 49 -14 46 -15
47 -62 53 -40 5 -49 10 -49 26 0 11 7 20 15 20 8 0 15 4 15 10 0 6 -9 6 -26 0
-14 -6 -38 -10 -54 -10 -28 0 -29 2 -28 45 1 43 3 47 42 65 23 10 50 28 60 39
11 12 31 21 48 21 16 0 40 7 53 16 18 11 35 14 65 9 36 -6 40 -10 40 -36 0
-20 8 -34 25 -45 14 -9 28 -15 30 -12 8 7 8 121 0 183 -5 38 -14 67 -26 78
-11 10 -19 25 -19 33 0 23 -43 114 -54 114 -5 0 -33 18 -62 40 -29 22 -60 40
-69 40 -17 0 -17 4 -15 185 2 233 -41 493 -102 610 -44 85 -162 174 -252 190
-38 6 -39 6 -32 -22z m224 -475 c9 -17 25 -39 35 -50 9 -10 17 -24 17 -31 0
-7 5 -18 10 -23 16 -16 -11 -66 -33 -60 -11 3 -25 2 -33 -1 -12 -4 -11 -8 1
-26 13 -19 12 -22 -16 -39 -29 -18 -59 -24 -59 -12 0 3 9 19 20 34 20 28 20
73 1 85 -11 6 -71 -113 -71 -140 0 -28 17 -42 33 -26 18 18 85 14 91 -6 15
-52 17 -94 6 -108 -21 -25 -77 -19 -108 13 -15 16 -36 31 -45 35 -23 8 -48 68
-47 110 0 18 -4 57 -8 87 -12 73 0 100 45 100 23 0 33 -5 33 -15 0 -20 44 -20
64 1 17 16 19 30 16 77 -2 38 26 36 48 -5z"/>
<path d="M10071 3067 c-6 -8 -32 -61 -59 -120 -32 -70 -59 -114 -78 -128 -16
-12 -58 -50 -94 -84 -70 -67 -195 -165 -211 -165 -5 0 -30 -19 -55 -42 -83
-77 -137 -220 -155 -410 -6 -62 -16 -135 -24 -163 -18 -68 -23 -99 -35 -250
-10 -117 -14 -135 -41 -176 -33 -52 -37 -100 -14 -156 19 -45 19 -82 0 -89 -8
-3 -19 -22 -26 -42 -19 -59 -50 -112 -64 -112 -10 0 -12 -10 -8 -36 l6 -36
-44 31 c-35 26 -51 31 -84 29 -32 -2 -41 -7 -43 -24 -2 -16 4 -23 21 -28 13
-3 35 -14 49 -25 24 -19 24 -22 16 -98 -5 -43 -7 -97 -4 -120 6 -44 0 -73 -15
-73 -4 0 -25 19 -46 41 -21 23 -44 47 -51 53 -42 35 -50 48 -56 83 -6 30 -13
41 -38 52 -39 18 -135 8 -186 -18 -49 -25 -162 -109 -185 -138 -10 -13 -23
-23 -29 -23 -19 0 -78 -50 -78 -66 0 -12 111 -14 825 -14 l825 0 0 1180 c0
649 -2 1180 -4 1180 -2 0 -8 -6 -15 -13z"/>
<path d="M5388 2948 c-38 -22 -53 -47 -64 -110 -6 -39 -21 -47 -42 -26 -9 9
-12 4 -12 -25 0 -22 5 -37 12 -37 9 0 9 -3 0 -12 -8 -8 -12 -57 -12 -156 0
-124 2 -143 15 -138 19 7 19 2 1 -33 -12 -22 -15 -95 -16 -390 l0 -362 22 6
c13 3 41 10 63 16 22 6 48 15 57 20 10 5 28 9 40 9 43 0 88 23 88 45 0 12 5
26 11 32 6 6 9 26 7 44 l-4 34 -11 -27 c-7 -14 -17 -29 -23 -33 -6 -4 -15 -18
-20 -31 -16 -41 -40 -30 -40 17 l0 41 -25 -16 c-13 -9 -26 -16 -29 -16 -13 0
-30 121 -30 222 -1 64 -4 120 -8 124 -5 4 -8 39 -8 78 -1 39 -7 98 -15 131
-21 85 -19 99 17 136 38 41 88 118 88 136 0 8 -11 18 -25 23 -14 5 -25 16 -25
23 0 16 -42 57 -58 57 -18 0 -15 15 11 47 23 29 46 75 64 128 6 17 14 38 18
48 9 22 0 21 -47 -5z"/>
<path d="M8071 1508 c-6 -7 -25 -32 -43 -55 -18 -23 -61 -77 -95 -120 -35 -43
-66 -82 -71 -88 -4 -5 -15 -21 -25 -35 -14 -21 -26 -25 -70 -26 -111 -4 -209
-16 -234 -29 -23 -12 -8 -14 125 -14 l151 -1 48 57 c26 31 62 71 79 89 44 44
174 212 174 224 0 14 -27 13 -39 -2z"/>
<path d="M6942 1197 c-12 -13 -22 -26 -22 -30 0 -4 44 -7 98 -7 53 0 115 -5
137 -10 22 -5 89 -10 150 -12 98 -3 110 -1 113 14 3 15 -3 17 -40 12 -66 -8
-375 30 -394 49 -12 11 -19 9 -42 -16z"/>
<path d="M8480 1083 c-14 -3 -29 -9 -34 -14 -6 -5 -25 -9 -42 -9 -18 0 -36 -4
-39 -10 -3 -5 -19 -10 -35 -10 -16 0 -32 -4 -35 -10 -3 -5 -19 -10 -36 -10
-16 0 -37 -4 -47 -9 -23 -12 -107 -31 -136 -31 -13 0 -29 -7 -36 -15 -7 -8
-25 -15 -41 -15 -15 0 -31 -4 -34 -10 -3 -5 -19 -10 -35 -10 -16 0 -32 -4 -35
-10 -3 -5 -19 -10 -34 -10 -16 0 -35 -7 -42 -16 -12 -15 -10 -16 26 -10 22 4
57 9 78 12 20 4 40 10 43 15 3 5 20 9 39 9 19 0 37 5 40 10 3 6 19 10 35 10
16 0 39 4 52 9 13 5 52 17 88 26 36 9 73 21 82 26 10 5 28 9 40 9 20 0 66 12
113 30 11 5 28 11 38 14 9 3 17 12 17 21 0 8 -1 14 -2 14 -2 -1 -14 -4 -28 -6z"/>
</g>
</svg>
